<?xml version="1.0" encoding="UTF-8" standalone="no" ?>
<!DOCTYPE svg PUBLIC "-//W3C//DTD SVG 1.1//EN" "http://www.w3.org/Graphics/SVG/1.1/DTD/svg11.dtd">
<svg xmlns="http://www.w3.org/2000/svg" xmlns:xlink="http://www.w3.org/1999/xlink" version="1.1" width="510" height="510" viewBox="0 0 510 510" xml:space="preserve">
<desc>Created with Fabric.js 1.7.22</desc>
<defs>
</defs>
<g id="icon" style="stroke: none; stroke-width: 1; stroke-dasharray: none; stroke-linecap: butt; stroke-linejoin: miter; stroke-miterlimit: 10; fill: none; fill-rule: nonzero; opacity: 1;" transform="translate(-2.8333333333333712 -2.8333333333333712) scale(5.67 5.67)" >
	<path d="M 38.815 36.058 l -29.8 -22.982 c -0.876 -0.667 -1.394 -1.689 -1.412 -2.8 c -0.019 -1.11 0.464 -2.148 1.324 -2.85 l 5.632 -4.595 c 2.327 -1.899 5.5 -2.37 8.278 -1.234 L 56.55 15.412 l -1.124 2.745 L 21.713 4.344 c -1.77 -0.724 -3.795 -0.423 -5.279 0.788 l -5.632 4.595 c -0.208 0.169 -0.235 0.387 -0.233 0.502 c 0.002 0.115 0.037 0.332 0.25 0.494 l 29.807 22.987 L 38.815 36.058 z" style="stroke: none; stroke-width: 1; stroke-dasharray: none; stroke-linecap: butt; stroke-linejoin: miter; stroke-miterlimit: 10; fill: rgb(0,0,0); fill-rule: nonzero; opacity: 1;" transform=" matrix(1 0 0 1 0 0) " stroke-linecap="round" />
	<path d="M 47.998 14.114 L 45.9 12.016 l 2.339 -2.34 c 0.121 -0.121 0.138 -0.261 0.138 -0.334 c 0 -0.073 -0.017 -0.213 -0.138 -0.334 l -3.404 -3.404 c -0.121 -0.12 -0.261 -0.139 -0.334 -0.139 c -0.073 0 -0.213 0.018 -0.333 0.139 l -4.927 4.927 l -2.097 -2.098 l 4.927 -4.927 c 1.298 -1.3 3.565 -1.299 4.863 0 l 3.404 3.404 c 0.65 0.649 1.007 1.513 1.007 2.432 c 0 0.919 -0.357 1.783 -1.007 2.432 L 47.998 14.114 z" style="stroke: none; stroke-width: 1; stroke-dasharray: none; stroke-linecap: butt; stroke-linejoin: miter; stroke-miterlimit: 10; fill: rgb(0,0,0); fill-rule: nonzero; opacity: 1;" transform=" matrix(1 0 0 1 0 0) " stroke-linecap="round" />
	<path d="M 15.797 70.489 L 1.18 59.056 c -0.771 -0.605 -1.2 -1.512 -1.179 -2.491 c 0.021 -0.976 0.488 -1.864 1.282 -2.435 l 3.612 -2.594 c 1.723 -1.237 3.995 -1.461 5.928 -0.589 l 12.787 5.744 l -1.216 2.706 L 9.604 53.653 c -0.973 -0.438 -2.113 -0.328 -2.979 0.294 l -3.612 2.595 C 3 56.551 2.968 56.574 2.966 56.63 c -0.001 0.057 0.03 0.081 0.043 0.092 l 14.615 11.431 L 15.797 70.489 z" style="stroke: none; stroke-width: 1; stroke-dasharray: none; stroke-linecap: butt; stroke-linejoin: miter; stroke-miterlimit: 10; fill: rgb(0,0,0); fill-rule: nonzero; opacity: 1;" transform=" matrix(1 0 0 1 0 0) " stroke-linecap="round" />
	<path d="M 16.443 75.945 c -1.094 0 -1.502 -0.408 -1.749 -0.656 l 0 0 c -0.776 -0.776 -3.138 -3.139 10.519 -23.324 C 33.755 39.34 44.389 26.269 53.66 17 C 69.346 1.315 80.975 -3.632 87.295 2.687 c 3.511 3.511 3.604 8.607 0.277 15.146 c -2.68 5.268 -7.59 11.492 -14.597 18.498 c -9.27 9.27 -22.34 19.902 -34.963 28.442 C 24.262 74.076 18.784 75.945 16.443 75.945 z M 80.586 2.974 c -2.095 0 -4.597 0.762 -7.489 2.286 c -9.632 5.073 -23.083 18.388 -36.905 36.529 c -11.784 15.467 -18.781 28 -19.212 31.215 c 3.214 -0.431 15.748 -7.427 31.215 -19.213 c 18.142 -13.822 31.455 -27.273 36.529 -36.905 c 2.879 -5.466 3.039 -9.538 0.475 -12.102 C 83.991 3.578 82.449 2.974 80.586 2.974 z" style="stroke: none; stroke-width: 1; stroke-dasharray: none; stroke-linecap: butt; stroke-linejoin: miter; stroke-miterlimit: 10; fill: rgb(0,0,0); fill-rule: nonzero; opacity: 1;" transform=" matrix(1 0 0 1 0 0) " stroke-linecap="round" />
	<path d="M 79.768 82.38 c -0.021 0 -0.042 0 -0.064 0 c -1.11 -0.019 -2.131 -0.537 -2.803 -1.42 L 53.925 51.168 l 2.349 -1.812 l 22.983 29.801 c 0.168 0.22 0.384 0.255 0.499 0.257 c 0.084 -0.005 0.332 -0.025 0.502 -0.233 l 4.595 -5.633 c 1.21 -1.484 1.512 -3.506 0.786 -5.279 L 71.827 34.557 l 2.745 -1.125 l 13.812 33.713 c 1.138 2.779 0.665 5.951 -1.233 8.278 l -4.595 5.633 C 81.867 81.9 80.853 82.38 79.768 82.38 z" style="stroke: none; stroke-width: 1; stroke-dasharray: none; stroke-linecap: butt; stroke-linejoin: miter; stroke-miterlimit: 10; fill: rgb(0,0,0); fill-rule: nonzero; opacity: 1;" transform=" matrix(1 0 0 1 0 0) " stroke-linecap="round" />
	<path d="M 81.549 52.84 l -2.098 -2.097 l 4.927 -4.927 c 0.121 -0.121 0.138 -0.261 0.138 -0.334 c 0 -0.073 -0.017 -0.213 -0.138 -0.334 l -3.404 -3.405 c -0.185 -0.184 -0.485 -0.184 -0.668 0 l -2.34 2.34 l -2.098 -2.097 l 2.34 -2.34 c 1.34 -1.341 3.523 -1.341 4.863 0 l 3.404 3.405 c 0.65 0.649 1.007 1.513 1.007 2.432 c 0 0.918 -0.357 1.782 -1.007 2.432 L 81.549 52.84 z" style="stroke: none; stroke-width: 1; stroke-dasharray: none; stroke-linecap: butt; stroke-linejoin: miter; stroke-miterlimit: 10; fill: rgb(0,0,0); fill-rule: nonzero; opacity: 1;" transform=" matrix(1 0 0 1 0 0) " stroke-linecap="round" />
	<path d="M 33.348 89.983 c -0.952 0 -1.83 -0.427 -2.42 -1.178 l -11.435 -14.62 l 2.337 -1.827 l 11.433 14.618 c 0.009 0.011 0.034 0.041 0.089 0.041 c 0.056 -0.001 0.079 -0.033 0.089 -0.046 l 2.594 -3.613 c 0.62 -0.865 0.734 -2.006 0.295 -2.975 l -5.747 -12.795 l 2.706 -1.215 l 5.745 12.791 c 0.873 1.929 0.648 4.2 -0.59 5.924 l -2.595 3.614 c -0.57 0.794 -1.458 1.261 -2.435 1.282 C 33.393 89.983 33.371 89.983 33.348 89.983 z" style="stroke: none; stroke-width: 1; stroke-dasharray: none; stroke-linecap: butt; stroke-linejoin: miter; stroke-miterlimit: 10; fill: rgb(0,0,0); fill-rule: nonzero; opacity: 1;" transform=" matrix(1 0 0 1 0 0) " stroke-linecap="round" />
	<path d="M 80.199 15.243 c -0.38 0 -0.759 -0.145 -1.049 -0.435 c -0.579 -0.579 -0.579 -1.519 0 -2.098 c 0.735 -0.735 1.005 -2.263 0.695 -2.573 c -0.314 -0.312 -1.84 -0.04 -2.574 0.695 c -0.579 0.578 -1.518 0.579 -2.098 0 s -0.579 -1.519 0 -2.098 c 1.524 -1.521 4.915 -2.548 6.769 -0.694 c 1.853 1.854 0.826 5.247 -0.695 6.768 C 80.958 15.098 80.579 15.243 80.199 15.243 z" style="stroke: none; stroke-width: 1; stroke-dasharray: none; stroke-linecap: butt; stroke-linejoin: miter; stroke-miterlimit: 10; fill: rgb(0,0,0); fill-rule: nonzero; opacity: 1;" transform=" matrix(1 0 0 1 0 0) " stroke-linecap="round" />
</g>
</svg>