<svg width="68" height="68" viewBox="0 0 68 68" fill="none" xmlns="http://www.w3.org/2000/svg">
<g filter="url(#filter0_d_134:4878)">
<circle cx="34" cy="32" r="32" fill="url(#paint0_linear_134:4878)"/>
</g>
<path d="M41.5492 30.9969C41.0942 29.9728 40.4328 29.0536 39.6063 28.2969L38.9242 27.6711C38.9011 27.6504 38.8732 27.6358 38.843 27.6284C38.8129 27.621 38.7814 27.6212 38.7513 27.6288C38.7212 27.6364 38.6935 27.6513 38.6705 27.6722C38.6475 27.6931 38.63 27.7193 38.6195 27.7485L38.3148 28.6227C38.125 29.1711 37.7758 29.7313 37.2812 30.2821C37.2484 30.3172 37.2109 30.3266 37.1852 30.3289C37.1594 30.3313 37.1195 30.3266 37.0844 30.2938C37.0516 30.2656 37.0352 30.2235 37.0375 30.1813C37.1242 28.7703 36.7023 27.1789 35.7789 25.4469C35.0148 24.0078 33.9531 22.8852 32.6266 22.1024L31.6586 21.5328C31.532 21.4578 31.3703 21.5563 31.3773 21.7039L31.4289 22.8289C31.4641 23.5977 31.375 24.2774 31.1641 24.8422C30.9062 25.5336 30.5359 26.1758 30.0625 26.7524C29.733 27.1531 29.3596 27.5155 28.9492 27.8328C27.9609 28.5926 27.1572 29.5661 26.5984 30.6805C26.041 31.8046 25.7507 33.0422 25.75 34.2969C25.75 35.4031 25.968 36.4742 26.3992 37.4844C26.8156 38.457 27.4165 39.3396 28.1688 40.0836C28.9281 40.8336 29.8094 41.4242 30.7914 41.8344C31.8086 42.261 32.8867 42.4766 34 42.4766C35.1133 42.4766 36.1914 42.261 37.2086 41.8367C38.1882 41.429 39.079 40.8343 39.8312 40.086C40.5906 39.336 41.1859 38.4594 41.6008 37.4867C42.0314 36.4793 42.2523 35.3948 42.25 34.2992C42.25 33.1555 42.0156 32.0446 41.5492 30.9969V30.9969Z" fill="#F8F8F8"/>
<defs>
<filter id="filter0_d_134:4878" x="0" y="0" width="68" height="68" filterUnits="userSpaceOnUse" color-interpolation-filters="sRGB">
<feFlood flood-opacity="0" result="BackgroundImageFix"/>
<feColorMatrix in="SourceAlpha" type="matrix" values="0 0 0 0 0 0 0 0 0 0 0 0 0 0 0 0 0 0 127 0" result="hardAlpha"/>
<feOffset dy="2"/>
<feGaussianBlur stdDeviation="1"/>
<feColorMatrix type="matrix" values="0 0 0 0 0 0 0 0 0 0 0 0 0 0 0 0 0 0 0.05 0"/>
<feBlend mode="normal" in2="BackgroundImageFix" result="effect1_dropShadow_134:4878"/>
<feBlend mode="normal" in="SourceGraphic" in2="effect1_dropShadow_134:4878" result="shape"/>
</filter>
<linearGradient id="paint0_linear_134:4878" x1="34" y1="0" x2="34" y2="64" gradientUnits="userSpaceOnUse">
<stop stop-color="#0091FF"/>
<stop offset="1" stop-color="#004C85"/>
</linearGradient>
</defs>
</svg>
