<svg width="24" height="24" viewBox="0 0 24 24" fill="none" xmlns="http://www.w3.org/2000/svg">
<g opacity="0.5">
<path d="M20.487 17.1402L16.422 13.4442C16.2299 13.2696 15.9774 13.1764 15.7178 13.1845C15.4583 13.1925 15.212 13.3011 15.031 13.4872L12.638 15.9482C12.062 15.8382 10.904 15.4772 9.71201 14.2882C8.52001 13.0952 8.15901 11.9342 8.05201 11.3622L10.511 8.96824C10.6974 8.78737 10.8061 8.54106 10.8142 8.28145C10.8222 8.02183 10.7289 7.76928 10.554 7.57724L6.85901 3.51324C6.68405 3.3206 6.44089 3.20374 6.18116 3.1875C5.92143 3.17125 5.66561 3.2569 5.46801 3.42624L3.29801 5.28724C3.12512 5.46075 3.02193 5.69169 3.00801 5.93624C2.99301 6.18624 2.70701 12.1082 7.29901 16.7022C11.305 20.7072 16.323 21.0002 17.705 21.0002C17.907 21.0002 18.031 20.9942 18.064 20.9922C18.3085 20.9786 18.5393 20.8749 18.712 20.7012L20.572 18.5302C20.742 18.3333 20.8283 18.0776 20.8124 17.8179C20.7965 17.5582 20.6798 17.315 20.487 17.1402V17.1402Z" fill="black"/>
</g>
</svg>
