<svg width="27" height="26" viewBox="0 0 27 26" fill="none" xmlns="http://www.w3.org/2000/svg">
<ellipse cx="13.0165" cy="13.061" rx="13.0165" ry="12.9389" fill="black"/>
<path d="M19.525 13.742H14.3869V18.8495C14.3869 19.4113 13.9244 19.871 13.3592 19.871C12.794 19.871 12.3316 19.4113 12.3316 18.8495V13.742H7.19351C6.62832 13.742 6.16589 13.2824 6.16589 12.7205C6.16589 12.1587 6.62832 11.699 7.19351 11.699H12.3316V6.59156C12.3316 6.02974 12.794 5.57007 13.3592 5.57007C13.9244 5.57007 14.3869 6.02974 14.3869 6.59156V11.699H19.525C20.0902 11.699 20.5526 12.1587 20.5526 12.7205C20.5526 13.2824 20.0902 13.742 19.525 13.742Z" fill="white"/>
</svg>
