<svg width="118" height="24" viewBox="0 0 118 24" fill="none" xmlns="http://www.w3.org/2000/svg">
<path d="M0 1.52588e-05V12.0001C0 18.5525 6.02925 23.8785 13.5185 23.998C13.5048 21.8541 13.4525 17.4791 13.4357 16.0773C13.4314 15.7329 13.6016 15.4032 13.909 15.1865C14.1657 15.0055 14.5506 14.7859 15.1177 14.5585C16.6226 13.9563 16.5821 12.9902 15.7035 12.0829C15.0655 11.4243 15.1177 10.7629 15.2908 10.255C15.3884 9.9666 15.1572 9.76743 14.8368 9.61577L14.0714 9.28802C14.0714 9.28802 14.6067 8.96273 14.5419 8.64142C14.4986 8.42937 14.3811 8.34233 14.1512 8.2635C14.0225 8.21909 13.7701 8.06033 13.6304 8.0177C13.2692 7.90712 13.0643 7.35821 13.1048 7.05534C13.2394 6.04969 13.504 5.28607 13.5068 4.27375L13.519 1.52588e-05H0Z" fill="url(#paint0_linear)"/>
<path d="M14.5554 2.15833C14.5554 2.81182 14.5307 3.75174 14.5325 4.06127C14.5365 4.91038 14.299 5.57785 14.0484 6.29929C13.9569 6.56285 13.5333 7.38599 13.5601 7.54675C13.6865 8.30326 15.0392 7.93755 14.9997 8.22155L14.9938 8.26285C14.9676 8.45537 14.8389 8.72271 14.7224 8.93387C14.6362 9.08997 14.8641 9.22476 14.966 9.26894C15.0015 9.28426 15.0545 9.30336 15.118 9.32468C15.5949 9.48366 15.5903 9.76633 15.5778 10.2113C15.5594 10.8697 15.1888 10.7011 16.1373 12.1587C17.0574 13.572 16.9851 14.3605 15.6428 14.9924C15.4761 15.0708 14.5554 15.3613 14.5554 16.0507C14.5554 17.8495 14.5715 22.3753 14.5776 24H27.5402V12.0001C27.5402 5.60361 21.7954 0.376175 14.5554 0.0195675V2.15833Z" fill="url(#paint1_linear)"/>
<path d="M56.192 7.50399C53.552 7.50399 51.2 8.24799 49.688 9.80799V2.79999H44.744V22H49.688V19.912C51.2 21.496 53.552 22.24 56.192 22.24C60.32 22.24 64.328 20.464 64.328 14.872C64.328 9.25599 60.32 7.50399 56.192 7.50399ZM54.536 18.136C51.44 18.136 49.688 17.32 49.688 14.872C49.688 12.424 51.44 11.608 54.536 11.608C57.656 11.608 59.408 12.424 59.408 14.872C59.408 17.32 57.656 18.136 54.536 18.136Z" fill="#89287C"/>
<path d="M65.4628 2.79999V22H70.4068V2.79999H65.4628Z" fill="#89287C"/>
<path d="M71.8378 2.79999V6.49599H76.7818V2.79999H71.8378ZM71.8378 7.74399V22H76.7818V7.74399H71.8378Z" fill="#89287C"/>
<path d="M77.9025 17.032C77.9025 21.544 82.8465 22.24 88.2945 22.24C93.7425 22.24 97.4385 21.544 97.4385 17.368C97.4385 13.6 93.7665 13.336 88.1505 13C83.9025 12.712 83.2305 12.664 83.2305 11.92C83.2305 11.224 84.2145 11.104 87.6225 11.104C90.7905 11.104 92.0385 11.224 92.0385 12.208H96.9585C96.9585 8.19999 93.1905 7.50399 87.8625 7.50399C82.6545 7.50399 78.2865 8.19999 78.2865 12.088C78.2865 15.616 81.2625 16.12 87.6705 16.432C91.8945 16.672 92.5185 16.672 92.5185 17.56C92.5185 18.424 91.8705 18.64 88.0545 18.64C84.0225 18.64 82.8465 18.184 82.8465 17.032H77.9025Z" fill="#89287C"/>
<path d="M98.2696 17.032C98.2696 21.544 103.214 22.24 108.662 22.24C114.11 22.24 117.806 21.544 117.806 17.368C117.806 13.6 114.134 13.336 108.518 13C104.27 12.712 103.598 12.664 103.598 11.92C103.598 11.224 104.582 11.104 107.99 11.104C111.158 11.104 112.406 11.224 112.406 12.208H117.326C117.326 8.19999 113.558 7.50399 108.23 7.50399C103.022 7.50399 98.6536 8.19999 98.6536 12.088C98.6536 15.616 101.63 16.12 108.038 16.432C112.262 16.672 112.886 16.672 112.886 17.56C112.886 18.424 112.238 18.64 108.422 18.64C104.39 18.64 103.214 18.184 103.214 17.032H98.2696Z" fill="#89287C"/>
<defs>
<linearGradient id="paint0_linear" x1="4.72068" y1="26.6967" x2="4.72068" y2="-3.29654" gradientUnits="userSpaceOnUse">
<stop stop-color="#632B75"/>
<stop offset="1.22e-06" stop-color="#632B75"/>
<stop offset="0.0247929" stop-color="#632B75"/>
<stop offset="0.58191" stop-color="#B22483"/>
<stop offset="0.969347" stop-color="#EC629F"/>
<stop offset="1" stop-color="#EC629F"/>
</linearGradient>
<linearGradient id="paint1_linear" x1="21.3754" y1="-0.461027" x2="21.3754" y2="25.1656" gradientUnits="userSpaceOnUse">
<stop stop-color="#632B75"/>
<stop offset="1.22e-06" stop-color="#632B75"/>
<stop offset="0.0247929" stop-color="#632B75"/>
<stop offset="0.58191" stop-color="#B22483"/>
<stop offset="0.969347" stop-color="#EC629F"/>
<stop offset="1" stop-color="#EC629F"/>
</linearGradient>
</defs>
</svg>
