<svg width="100" height="100" viewBox="0 0 100 100" fill="none" xmlns="http://www.w3.org/2000/svg">
<circle cx="50" cy="50" r="50" fill="#89287C"/>
<path d="M35.5825 34.585L36.695 29.02C36.9216 27.8861 37.5343 26.8658 38.4286 26.1328C39.3229 25.3999 40.4437 24.9995 41.6 25H58.4C59.5563 24.9995 60.6771 25.3999 61.5714 26.1328C62.4657 26.8658 63.0784 27.8861 63.305 29.02L64.4175 34.585C64.5921 35.457 65.0107 36.2615 65.6245 36.905C66.2383 37.5484 67.0222 38.0045 67.885 38.22C69.9175 38.7285 71.7217 39.9017 73.0109 41.5532C74.3001 43.2048 75.0002 45.2399 75 47.335V65C75 67.6522 73.9464 70.1957 72.0711 72.0711C70.1957 73.9464 67.6522 75 65 75H35C32.3478 75 29.8043 73.9464 27.9289 72.0711C26.0536 70.1957 25 67.6522 25 65V47.335C24.9998 45.2399 25.6999 43.2048 26.9891 41.5532C28.2783 39.9017 30.0825 38.7285 32.115 38.22C32.9778 38.0045 33.7617 37.5484 34.3755 36.905C34.9893 36.2615 35.4079 35.457 35.5825 34.585V34.585Z" stroke="white" stroke-width="4" stroke-linecap="round" stroke-linejoin="round"/>
<path d="M50 65C55.5228 65 60 60.5228 60 55C60 49.4772 55.5228 45 50 45C44.4772 45 40 49.4772 40 55C40 60.5228 44.4772 65 50 65Z" stroke="white" stroke-width="4" stroke-linecap="round" stroke-linejoin="round"/>
<path d="M47.5 35H52.5" stroke="white" stroke-width="4" stroke-linecap="round" stroke-linejoin="round"/>
</svg>
