<svg width="206" height="73" viewBox="0 0 206 73" fill="none" xmlns="http://www.w3.org/2000/svg">
<path d="M3.08771 54.1447L0 43.7526H1.31425L3.89526 52.9953L6.3496 43.7526H7.79053L10.2449 53.0268L12.8259 43.7526H14.0768L11.0049 54.1447H9.4373L7.58468 47.4056L7.04631 45.0595H7.03047L6.4921 47.4056L4.65531 54.1447H3.08771Z" fill="white"/>
<path d="M16.1184 54.1447V42.6504H17.3852V47.4528C17.6596 46.9805 18.0238 46.6393 18.4778 46.4294C18.9317 46.2194 19.4278 46.1144 19.9662 46.1144C20.5362 46.1144 21.0535 46.2247 21.518 46.4451C21.9824 46.655 22.3519 46.9805 22.6264 47.4213C22.9114 47.8622 23.0539 48.4238 23.0539 49.1061V54.1447H21.7871V49.547C21.7871 48.6757 21.5971 48.0721 21.2171 47.7362C20.8476 47.3898 20.3884 47.2166 19.8395 47.2166C19.4595 47.2166 19.0795 47.3059 18.6994 47.4843C18.3194 47.6628 18.0027 47.9567 17.7494 48.3661C17.5066 48.765 17.3852 49.3003 17.3852 49.9721V54.1447H16.1184Z" fill="white"/>
<path d="M29.2315 54.3021C28.482 54.3021 27.8117 54.1394 27.2206 53.814C26.64 53.4886 26.1861 53.0215 25.8588 52.4127C25.5316 51.7933 25.368 51.0586 25.368 50.2083C25.368 49.358 25.5316 48.6285 25.8588 48.0197C26.1861 47.4003 26.6347 46.928 27.2047 46.6026C27.7748 46.2771 28.424 46.1144 29.1524 46.1144C29.8913 46.1144 30.5194 46.2719 31.0367 46.5868C31.5645 46.9017 31.9656 47.3321 32.2401 47.878C32.5145 48.4133 32.6518 49.0169 32.6518 49.6887C32.6518 49.8671 32.6465 50.0298 32.6359 50.1768C32.6254 50.3238 32.6095 50.455 32.5884 50.5704H26.1913V49.4525H32.0342L31.385 49.5785C31.385 48.8227 31.1739 48.2401 30.7516 47.8307C30.34 47.4213 29.7963 47.2166 29.1207 47.2166C28.6034 47.2166 28.1548 47.3374 27.7748 47.5788C27.4053 47.8097 27.115 48.1509 26.9039 48.6022C26.7033 49.0431 26.603 49.5785 26.603 50.2083C26.603 50.8276 26.7086 51.363 26.9197 51.8143C27.1308 52.2657 27.4264 52.6121 27.8064 52.8535C28.197 53.0845 28.6615 53.2 29.1999 53.2C29.7805 53.2 30.2502 53.0897 30.6091 52.8693C30.9786 52.6489 31.2742 52.3497 31.4959 51.9718L32.4934 52.5544C32.2929 52.9113 32.0342 53.2209 31.7175 53.4834C31.4114 53.7458 31.0472 53.9505 30.625 54.0975C30.2133 54.2339 29.7488 54.3021 29.2315 54.3021Z" fill="white"/>
<path d="M35.061 54.1447V46.2719H36.0902L36.2644 47.563C36.486 47.0802 36.808 46.718 37.2303 46.4766C37.6631 46.2352 38.1856 46.1144 38.7979 46.1144C38.9351 46.1144 39.0829 46.1249 39.2412 46.1459C39.4101 46.1669 39.5526 46.2089 39.6688 46.2719L39.4471 47.4213C39.331 47.3793 39.2043 47.3478 39.0671 47.3269C38.9298 47.3059 38.7345 47.2954 38.4812 47.2954C38.1539 47.2954 37.8214 47.3898 37.4836 47.5788C37.1564 47.7677 36.8819 48.0564 36.6602 48.4448C36.4385 48.8227 36.3277 49.3055 36.3277 49.8934V54.1447H35.061Z" fill="white"/>
<path d="M44.5866 54.3021C43.8371 54.3021 43.1668 54.1394 42.5756 53.814C41.995 53.4886 41.5411 53.0215 41.2139 52.4127C40.8866 51.7933 40.723 51.0586 40.723 50.2083C40.723 49.358 40.8866 48.6285 41.2139 48.0197C41.5411 47.4003 41.9897 46.928 42.5598 46.6026C43.1298 46.2771 43.779 46.1144 44.5074 46.1144C45.2463 46.1144 45.8744 46.2719 46.3917 46.5868C46.9195 46.9017 47.3207 47.3321 47.5951 47.878C47.8696 48.4133 48.0068 49.0169 48.0068 49.6887C48.0068 49.8671 48.0015 50.0298 47.991 50.1768C47.9804 50.3238 47.9646 50.455 47.9435 50.5704H41.5464V49.4525H47.3893L46.7401 49.5785C46.7401 48.8227 46.5289 48.2401 46.1067 47.8307C45.695 47.4213 45.1513 47.2166 44.4757 47.2166C43.9585 47.2166 43.5098 47.3374 43.1298 47.5788C42.7603 47.8097 42.4701 48.1509 42.2589 48.6022C42.0584 49.0431 41.9581 49.5785 41.9581 50.2083C41.9581 50.8276 42.0636 51.363 42.2748 51.8143C42.4859 52.2657 42.7815 52.6121 43.1615 52.8535C43.5521 53.0845 44.0165 53.2 44.5549 53.2C45.1355 53.2 45.6053 53.0897 45.9642 52.8693C46.3336 52.6489 46.6292 52.3497 46.8509 51.9718L47.8485 52.5544C47.6479 52.9113 47.3893 53.2209 47.0726 53.4834C46.7665 53.7458 46.4023 53.9505 45.98 54.0975C45.5683 54.2339 45.1038 54.3021 44.5866 54.3021Z" fill="white"/>
<path d="M57.3719 44.036V51.9718C57.3719 52.3602 57.4827 52.6489 57.7044 52.8378C57.9261 53.0268 58.2111 53.1212 58.5595 53.1212C58.8656 53.1212 59.1295 53.0687 59.3512 52.9638C59.5729 52.8588 59.7734 52.7171 59.9529 52.5386L60.3962 53.5936C60.1535 53.814 59.8632 53.9872 59.5254 54.1132C59.1981 54.2392 58.8181 54.3021 58.3853 54.3021C57.9841 54.3021 57.6094 54.2339 57.261 54.0975C56.9127 53.9505 56.6329 53.7248 56.4218 53.4204C56.2212 53.1055 56.1157 52.6961 56.1051 52.1922V44.3824L57.3719 44.036ZM60.2537 46.2719V47.3583H54.5217V46.2719H60.2537Z" fill="white"/>
<path d="M72.0653 46.2719H73.4746L70.7194 54.1447H69.4527L67.22 47.878L65.114 54.1447H63.8473L61.0921 46.2719H62.5014L64.4965 52.6804L66.65 46.2719H67.9167L70.0702 52.6804L72.0653 46.2719Z" fill="white"/>
<path d="M78.404 46.1144C79.1535 46.1144 79.8133 46.2771 80.3833 46.6026C80.9639 46.928 81.4179 47.4003 81.7451 48.0197C82.0723 48.6285 82.236 49.358 82.236 50.2083C82.236 51.0586 82.0723 51.7933 81.7451 52.4127C81.4179 53.0215 80.9639 53.4886 80.3833 53.814C79.8133 54.1394 79.1535 54.3021 78.404 54.3021C77.6651 54.3021 77.0053 54.1394 76.4247 53.814C75.8441 53.4886 75.3902 53.0215 75.063 52.4127C74.7357 51.7933 74.5721 51.0586 74.5721 50.2083C74.5721 49.358 74.7357 48.6285 75.063 48.0197C75.3902 47.4003 75.8441 46.928 76.4247 46.6026C77.0053 46.2771 77.6651 46.1144 78.404 46.1144ZM78.404 47.2009C77.8657 47.2009 77.4065 47.3216 77.0265 47.563C76.6464 47.8045 76.3509 48.1509 76.1397 48.6022C75.9392 49.0431 75.8389 49.5785 75.8389 50.2083C75.8389 50.8276 75.9392 51.363 76.1397 51.8143C76.3509 52.2657 76.6464 52.6121 77.0265 52.8535C77.4065 53.095 77.8657 53.2157 78.404 53.2157C78.9424 53.2157 79.4016 53.095 79.7816 52.8535C80.1617 52.6121 80.452 52.2657 80.6525 51.8143C80.8637 51.363 80.9692 50.8276 80.9692 50.2083C80.9692 49.5785 80.8637 49.0431 80.6525 48.6022C80.452 48.1509 80.1617 47.8045 79.7816 47.563C79.4016 47.3216 78.9424 47.2009 78.404 47.2009Z" fill="white"/>
<path d="M90.0175 54.1447V46.2719H91.1259L91.205 47.5001C91.4901 47.0172 91.8595 46.6655 92.3134 46.4451C92.7779 46.2247 93.253 46.1144 93.7385 46.1144C94.298 46.1144 94.8258 46.2404 95.322 46.4923C95.8181 46.7443 96.1982 47.1327 96.4621 47.6575C96.631 47.3006 96.8685 47.0119 97.1746 46.7915C97.4807 46.5606 97.8133 46.3926 98.1722 46.2876C98.5416 46.1722 98.89 46.1144 99.2172 46.1144C99.7239 46.1144 100.204 46.2194 100.658 46.4294C101.123 46.6393 101.503 46.9647 101.798 47.4056C102.094 47.8465 102.242 48.4133 102.242 49.1061V54.1447H100.975V49.2321C100.975 48.5183 100.795 48.0039 100.437 47.689C100.078 47.3741 99.6342 47.2166 99.1064 47.2166C98.6947 47.2166 98.3094 47.3164 97.9505 47.5158C97.5916 47.7152 97.3013 48.0092 97.0796 48.3976C96.8685 48.7859 96.7629 49.2636 96.7629 49.8304V54.1447H95.4962V49.2321C95.4962 48.5183 95.3167 48.0039 94.9578 47.689C94.5989 47.3741 94.1555 47.2166 93.6277 47.2166C93.2794 47.2166 92.9204 47.3111 92.551 47.5001C92.1921 47.6785 91.8912 47.9672 91.6484 48.3661C91.4056 48.765 91.2842 49.2898 91.2842 49.9406V54.1447H90.0175Z" fill="white"/>
<path d="M105.743 44.7603C105.458 44.7603 105.226 44.6764 105.046 44.5084C104.877 44.33 104.793 44.099 104.793 43.8156C104.793 43.5322 104.877 43.3065 105.046 43.1385C105.226 42.9601 105.458 42.8709 105.743 42.8709C106.028 42.8709 106.255 42.9601 106.424 43.1385C106.603 43.3065 106.693 43.5322 106.693 43.8156C106.693 44.099 106.603 44.33 106.424 44.5084C106.255 44.6764 106.028 44.7603 105.743 44.7603ZM106.376 46.2719V54.1447H105.11V46.2719H106.376Z" fill="white"/>
<path d="M109.316 54.1447V46.2719H110.424L110.535 48.0354L110.329 47.8622C110.498 47.4423 110.725 47.1064 111.01 46.8545C111.295 46.5921 111.622 46.4031 111.992 46.2876C112.372 46.1722 112.762 46.1144 113.163 46.1144C113.733 46.1144 114.251 46.2247 114.715 46.4451C115.18 46.655 115.549 46.9805 115.824 47.4213C116.109 47.8622 116.251 48.4238 116.251 49.1061V54.1447H114.984V49.547C114.984 48.6757 114.794 48.0721 114.414 47.7362C114.045 47.3898 113.586 47.2166 113.037 47.2166C112.657 47.2166 112.277 47.3059 111.897 47.4843C111.517 47.6628 111.2 47.9514 110.947 48.3503C110.704 48.7492 110.582 49.2846 110.582 49.9564V54.1447H109.316Z" fill="white"/>
<path d="M122.207 54.3021C121.553 54.3021 120.951 54.1394 120.402 53.814C119.853 53.4886 119.415 53.0215 119.088 52.4127C118.76 51.7933 118.597 51.0586 118.597 50.2083C118.597 49.337 118.771 48.597 119.119 47.9882C119.468 47.3793 119.927 46.9175 120.497 46.6026C121.067 46.2771 121.679 46.1144 122.334 46.1144C122.988 46.1144 123.553 46.2824 124.028 46.6183C124.514 46.9542 124.836 47.4003 124.994 47.9567L124.836 48.0669V42.6504H126.102V54.1447H124.994L124.883 52.2395L125.057 52.145C124.983 52.6069 124.804 53.0005 124.519 53.3259C124.244 53.6408 123.901 53.8823 123.49 54.0502C123.089 54.2182 122.661 54.3021 122.207 54.3021ZM122.334 53.2C122.84 53.2 123.279 53.074 123.648 52.8221C124.028 52.5701 124.318 52.2132 124.519 51.7514C124.73 51.279 124.836 50.7279 124.836 50.0981C124.836 49.4997 124.73 48.9854 124.519 48.555C124.318 48.1246 124.033 47.794 123.664 47.563C123.305 47.3321 122.883 47.2166 122.397 47.2166C121.595 47.2166 120.972 47.4896 120.529 48.0354C120.085 48.5813 119.864 49.3056 119.864 50.2083C119.864 51.111 120.08 51.8353 120.513 52.3812C120.946 52.927 121.553 53.2 122.334 53.2Z" fill="white"/>
<path d="M131.897 54.3021C131.126 54.3021 130.414 54.1394 129.759 53.814C129.115 53.4886 128.619 53.0268 128.271 52.4284L129.348 51.6569C129.58 52.1398 129.918 52.5176 130.361 52.7906C130.815 53.0635 131.359 53.2 131.992 53.2C132.551 53.2 132.99 53.095 133.306 52.885C133.623 52.6646 133.781 52.3812 133.781 52.0348C133.781 51.8143 133.707 51.6149 133.56 51.4365C133.422 51.2475 133.153 51.111 132.752 51.0271L130.852 50.6334C130.081 50.476 129.527 50.2135 129.189 49.8461C128.862 49.4787 128.698 49.0221 128.698 48.4763C128.698 48.0459 128.82 47.6523 129.063 47.2954C129.316 46.9385 129.67 46.655 130.124 46.4451C130.588 46.2247 131.132 46.1144 131.754 46.1144C132.536 46.1144 133.195 46.2667 133.734 46.5711C134.272 46.8755 134.673 47.3059 134.937 47.8622L133.876 48.555C133.697 48.0931 133.407 47.7572 133.005 47.5473C132.604 47.3269 132.187 47.2166 131.754 47.2166C131.374 47.2166 131.047 47.2691 130.773 47.3741C130.509 47.4791 130.303 47.626 130.155 47.815C130.018 47.9934 129.949 48.1981 129.949 48.429C129.949 48.66 130.029 48.8752 130.187 49.0746C130.345 49.2636 130.641 49.4 131.074 49.484L133.053 49.8934C133.792 50.0403 134.309 50.2818 134.605 50.6177C134.9 50.9536 135.048 51.363 135.048 51.8458C135.048 52.3392 134.916 52.7748 134.652 53.1527C134.388 53.5201 134.019 53.8035 133.544 54.003C133.069 54.2024 132.52 54.3021 131.897 54.3021Z" fill="white"/>
<path d="M142.794 54.1447V46.2719H143.902L143.981 47.5001C144.266 47.0172 144.636 46.6655 145.09 46.4451C145.554 46.2247 146.029 46.1144 146.515 46.1144C147.074 46.1144 147.602 46.2404 148.098 46.4923C148.594 46.7443 148.974 47.1327 149.238 47.6575C149.407 47.3006 149.645 47.0119 149.951 46.7915C150.257 46.5606 150.589 46.3926 150.948 46.2876C151.318 46.1722 151.666 46.1144 151.993 46.1144C152.5 46.1144 152.98 46.2194 153.434 46.4294C153.899 46.6393 154.279 46.9647 154.574 47.4056C154.87 47.8465 155.018 48.4133 155.018 49.1061V54.1447H153.751V49.2321C153.751 48.5183 153.572 48.0039 153.213 47.689C152.854 47.3741 152.41 47.2166 151.883 47.2166C151.471 47.2166 151.086 47.3164 150.727 47.5158C150.368 47.7152 150.077 48.0092 149.856 48.3976C149.645 48.7859 149.539 49.2636 149.539 49.8304V54.1447H148.272V49.2321C148.272 48.5183 148.093 48.0039 147.734 47.689C147.375 47.3741 146.932 47.2166 146.404 47.2166C146.056 47.2166 145.697 47.3111 145.327 47.5001C144.968 47.6785 144.667 47.9672 144.425 48.3661C144.182 48.765 144.06 49.2898 144.06 49.9406V54.1447H142.794Z" fill="white"/>
<path d="M162.509 49.0589C162.509 48.471 162.351 48.0197 162.034 47.7048C161.718 47.3793 161.269 47.2166 160.689 47.2166C160.14 47.2166 159.675 47.3374 159.295 47.5788C158.915 47.8097 158.635 48.1876 158.456 48.7125L157.427 48.0826C157.638 47.4948 158.028 47.0224 158.598 46.6655C159.168 46.2981 159.876 46.1144 160.72 46.1144C161.29 46.1144 161.807 46.2142 162.272 46.4136C162.736 46.6026 163.101 46.8965 163.365 47.2954C163.639 47.6838 163.776 48.1876 163.776 48.8069V52.6174C163.776 52.9953 163.977 53.1842 164.378 53.1842C164.578 53.1842 164.774 53.158 164.964 53.1055L164.9 54.0975C164.689 54.2024 164.415 54.2549 164.077 54.2549C163.771 54.2549 163.496 54.1972 163.254 54.0817C163.011 53.9662 162.821 53.793 162.684 53.5621C162.546 53.3207 162.478 53.0215 162.478 52.6646V52.5071L162.794 52.5544C162.668 52.9638 162.451 53.2997 162.145 53.5621C161.839 53.814 161.496 54.003 161.116 54.1289C160.736 54.2444 160.361 54.3021 159.992 54.3021C159.527 54.3021 159.094 54.2234 158.693 54.066C158.292 53.9085 157.97 53.6723 157.727 53.3574C157.495 53.032 157.379 52.6331 157.379 52.1607C157.379 51.5729 157.574 51.09 157.965 50.7122C158.366 50.3238 158.92 50.0613 159.628 49.9249L162.763 49.3108V50.35L160.213 50.8696C159.696 50.9746 159.311 51.1215 159.058 51.3105C158.804 51.4994 158.678 51.7619 158.678 52.0978C158.678 52.4232 158.804 52.6908 159.058 52.9008C159.321 53.1002 159.691 53.2 160.166 53.2C160.472 53.2 160.762 53.1632 161.037 53.0897C161.322 53.0058 161.575 52.885 161.797 52.7276C162.019 52.5596 162.193 52.3549 162.319 52.1135C162.446 51.8616 162.509 51.5677 162.509 51.2318V49.0589Z" fill="white"/>
<path d="M173.806 46.2719L167.488 52.5544V50.9798L172.207 46.2719H173.806ZM168.121 42.6504V54.1447H166.855V42.6504H168.121ZM170.496 49.0274L173.996 54.1447H172.46L169.436 49.7359L170.496 49.0274Z" fill="white"/>
<path d="M178.87 54.3021C178.12 54.3021 177.45 54.1394 176.859 53.814C176.278 53.4886 175.824 53.0215 175.497 52.4127C175.17 51.7933 175.006 51.0586 175.006 50.2083C175.006 49.358 175.17 48.6285 175.497 48.0197C175.824 47.4003 176.273 46.928 176.843 46.6026C177.413 46.2771 178.062 46.1144 178.791 46.1144C179.529 46.1144 180.158 46.2719 180.675 46.5868C181.203 46.9017 181.604 47.3321 181.878 47.878C182.153 48.4133 182.29 49.0169 182.29 49.6887C182.29 49.8671 182.285 50.0298 182.274 50.1768C182.264 50.3238 182.248 50.455 182.227 50.5704H175.83V49.4525H181.672L181.023 49.5785C181.023 48.8227 180.812 48.2401 180.39 47.8307C179.978 47.4213 179.434 47.2166 178.759 47.2166C178.242 47.2166 177.793 47.3374 177.413 47.5788C177.044 47.8097 176.753 48.1509 176.542 48.6022C176.342 49.0431 176.241 49.5785 176.241 50.2083C176.241 50.8276 176.347 51.363 176.558 51.8143C176.769 52.2657 177.065 52.6121 177.445 52.8535C177.835 53.0845 178.3 53.2 178.838 53.2C179.419 53.2 179.888 53.0897 180.247 52.8693C180.617 52.6489 180.912 52.3497 181.134 51.9718L182.132 52.5544C181.931 52.9113 181.672 53.2209 181.356 53.4834C181.05 53.7458 180.685 53.9505 180.263 54.0975C179.851 54.2339 179.387 54.3021 178.87 54.3021Z" fill="white"/>
<path d="M194.719 49.0589C194.719 48.471 194.561 48.0197 194.244 47.7048C193.928 47.3793 193.479 47.2166 192.899 47.2166C192.35 47.2166 191.885 47.3374 191.505 47.5788C191.125 47.8097 190.845 48.1876 190.666 48.7125L189.637 48.0826C189.848 47.4948 190.238 47.0224 190.808 46.6655C191.378 46.2981 192.086 46.1144 192.93 46.1144C193.5 46.1144 194.017 46.2142 194.482 46.4136C194.946 46.6026 195.311 46.8965 195.575 47.2954C195.849 47.6838 195.986 48.1876 195.986 48.8069V52.6174C195.986 52.9953 196.187 53.1842 196.588 53.1842C196.789 53.1842 196.984 53.158 197.174 53.1055L197.11 54.0975C196.899 54.2024 196.625 54.2549 196.287 54.2549C195.981 54.2549 195.706 54.1972 195.464 54.0817C195.221 53.9662 195.031 53.793 194.894 53.5621C194.756 53.3207 194.688 53.0215 194.688 52.6646V52.5071L195.004 52.5544C194.878 52.9638 194.661 53.2997 194.355 53.5621C194.049 53.814 193.706 54.003 193.326 54.1289C192.946 54.2444 192.571 54.3021 192.202 54.3021C191.737 54.3021 191.305 54.2234 190.903 54.066C190.502 53.9085 190.18 53.6723 189.937 53.3574C189.705 53.032 189.589 52.6331 189.589 52.1607C189.589 51.5729 189.784 51.09 190.175 50.7122C190.576 50.3238 191.13 50.0613 191.838 49.9249L194.973 49.3108V50.35L192.423 50.8696C191.906 50.9746 191.521 51.1215 191.268 51.3105C191.014 51.4994 190.888 51.7619 190.888 52.0978C190.888 52.4232 191.014 52.6908 191.268 52.9008C191.531 53.1002 191.901 53.2 192.376 53.2C192.682 53.2 192.972 53.1632 193.247 53.0897C193.532 53.0058 193.785 52.885 194.007 52.7276C194.229 52.5596 194.403 52.3549 194.529 52.1135C194.656 51.8616 194.719 51.5677 194.719 51.2318V49.0589Z" fill="white"/>
<path d="M199.065 54.1447V46.2719H200.173L200.284 48.0354L200.078 47.8622C200.247 47.4423 200.474 47.1064 200.759 46.8545C201.044 46.5921 201.371 46.4031 201.741 46.2876C202.121 46.1722 202.511 46.1144 202.912 46.1144C203.482 46.1144 204 46.2247 204.464 46.4451C204.929 46.655 205.298 46.9805 205.572 47.4213C205.857 47.8622 206 48.4238 206 49.1061V54.1447H204.733V49.547C204.733 48.6757 204.543 48.0721 204.163 47.7362C203.794 47.3898 203.335 47.2166 202.786 47.2166C202.406 47.2166 202.026 47.3059 201.646 47.4843C201.266 47.6628 200.949 47.9514 200.695 48.3503C200.453 48.7492 200.331 49.2846 200.331 49.9564V54.1447H199.065Z" fill="white"/>
<path d="M33.2443 73C32.4948 73 31.8244 72.8373 31.2333 72.5119C30.6527 72.1865 30.1988 71.7194 29.8715 71.1105C29.5443 70.4912 29.3807 69.7564 29.3807 68.9062C29.3807 68.0559 29.5443 67.3264 29.8715 66.7175C30.1988 66.0982 30.6474 65.6258 31.2175 65.3004C31.7875 64.975 32.4367 64.8123 33.1651 64.8123C33.904 64.8123 34.5321 64.9698 35.0494 65.2847C35.5772 65.5996 35.9783 66.03 36.2528 66.5758C36.5273 67.1112 36.6645 67.7147 36.6645 68.3866C36.6645 68.565 36.6592 68.7277 36.6487 68.8747C36.6381 69.0216 36.6223 69.1528 36.6012 69.2683H30.2041V68.1504H36.047L35.3977 68.2763C35.3977 67.5205 35.1866 66.938 34.7644 66.5286C34.3527 66.1192 33.809 65.9145 33.1334 65.9145C32.6162 65.9145 32.1675 66.0352 31.7875 66.2766C31.418 66.5076 31.1277 66.8487 30.9166 67.3001C30.716 67.741 30.6158 68.2763 30.6158 68.9062C30.6158 69.5255 30.7213 70.0608 30.9324 70.5122C31.1436 70.9636 31.4391 71.31 31.8192 71.5514C32.2097 71.7824 32.6742 71.8978 33.2126 71.8978C33.7932 71.8978 34.2629 71.7876 34.6219 71.5672C34.9913 71.3467 35.2869 71.0476 35.5086 70.6697L36.5061 71.2523C36.3056 71.6091 36.047 71.9188 35.7303 72.1812C35.4241 72.4437 35.0599 72.6484 34.6377 72.7953C34.226 72.9318 33.7615 73 33.2443 73Z" fill="white"/>
<path d="M40.7102 62.7339V70.6697C40.7102 71.0581 40.821 71.3467 41.0427 71.5357C41.2644 71.7246 41.5494 71.8191 41.8978 71.8191C42.2039 71.8191 42.4678 71.7666 42.6895 71.6616C42.9112 71.5567 43.1117 71.415 43.2912 71.2365L43.7346 72.2915C43.4918 72.5119 43.2015 72.6851 42.8637 72.8111C42.5364 72.937 42.1564 73 41.7236 73C41.3225 73 40.9477 72.9318 40.5993 72.7953C40.251 72.6484 39.9712 72.4227 39.7601 72.1183C39.5596 71.8033 39.454 71.394 39.4434 70.8901V63.0803L40.7102 62.7339ZM43.592 64.9698V66.0562H37.86V64.9698H43.592Z" fill="white"/>
<path d="M48.7849 73C48.0354 73 47.3651 72.8373 46.7739 72.5119C46.1933 72.1865 45.7394 71.7194 45.4121 71.1105C45.0849 70.4912 44.9213 69.7564 44.9213 68.9062C44.9213 68.0559 45.0849 67.3264 45.4121 66.7175C45.7394 66.0982 46.188 65.6258 46.7581 65.3004C47.3281 64.975 47.9773 64.8123 48.7057 64.8123C49.4446 64.8123 50.0727 64.9698 50.59 65.2847C51.1178 65.5996 51.5189 66.03 51.7934 66.5758C52.0679 67.1112 52.2051 67.7147 52.2051 68.3866C52.2051 68.565 52.1998 68.7277 52.1893 68.8747C52.1787 69.0216 52.1629 69.1528 52.1418 69.2683H45.7447V68.1504H51.5876L50.9383 68.2763C50.9383 67.5205 50.7272 66.938 50.305 66.5286C49.8933 66.1192 49.3496 65.9145 48.674 65.9145C48.1568 65.9145 47.7081 66.0352 47.3281 66.2766C46.9586 66.5076 46.6683 66.8487 46.4572 67.3001C46.2566 67.741 46.1564 68.2763 46.1564 68.9062C46.1564 69.5255 46.2619 70.0608 46.473 70.5122C46.6842 70.9636 46.9797 71.31 47.3598 71.5514C47.7503 71.7824 48.2148 71.8978 48.7532 71.8978C49.3338 71.8978 49.8035 71.7876 50.1625 71.5672C50.5319 71.3467 50.8275 71.0476 51.0492 70.6697L52.0467 71.2523C51.8462 71.6091 51.5876 71.9188 51.2709 72.1812C50.9647 72.4437 50.6005 72.6484 50.1783 72.7953C49.7666 72.9318 49.3021 73 48.7849 73Z" fill="white"/>
<path d="M54.6143 72.8426V64.9698H55.6435L55.8177 66.2609C56.0394 65.778 56.3613 65.4159 56.7836 65.1745C57.2164 64.933 57.7389 64.8123 58.3512 64.8123C58.4884 64.8123 58.6362 64.8228 58.7946 64.8438C58.9635 64.8648 59.106 64.9068 59.2221 64.9698L59.0004 66.1192C58.8843 66.0772 58.7576 66.0457 58.6204 66.0247C58.4832 66.0037 58.2879 65.9932 58.0345 65.9932C57.7073 65.9932 57.3747 66.0877 57.0369 66.2766C56.7097 66.4656 56.4352 66.7543 56.2136 67.1427C55.9919 67.5205 55.881 68.0034 55.881 68.5912V72.8426H54.6143Z" fill="white"/>
<path d="M61.0779 72.8426V64.9698H62.1863L62.2972 66.7333L62.0913 66.5601C62.2602 66.1402 62.4872 65.8043 62.7722 65.5524C63.0572 65.2899 63.3845 65.101 63.7539 64.9855C64.134 64.87 64.5246 64.8123 64.9257 64.8123C65.4957 64.8123 66.013 64.9225 66.4775 65.143C66.9419 65.3529 67.3114 65.6783 67.5859 66.1192C67.8709 66.5601 68.0134 67.1217 68.0134 67.804V72.8426H66.7466V68.2448C66.7466 67.3736 66.5566 66.77 66.1766 66.4341C65.8071 66.0877 65.3479 65.9145 64.799 65.9145C64.419 65.9145 64.039 66.0037 63.6589 66.1822C63.2789 66.3606 62.9622 66.6493 62.7089 67.0482C62.4661 67.4471 62.3447 67.9824 62.3447 68.6542V72.8426H61.0779Z" fill="white"/>
<path d="M75.5053 67.7567C75.5053 67.1689 75.347 66.7175 75.0303 66.4026C74.7136 66.0772 74.2649 65.9145 73.6843 65.9145C73.1354 65.9145 72.6709 66.0352 72.2909 66.2766C71.9109 66.5076 71.6311 66.8855 71.4517 67.4103L70.4224 66.7805C70.6336 66.1927 71.0242 65.7203 71.5942 65.3634C72.1642 64.996 72.8715 64.8123 73.716 64.8123C74.286 64.8123 74.8033 64.912 75.2678 65.1115C75.7322 65.3004 76.0964 65.5943 76.3604 65.9932C76.6348 66.3816 76.772 66.8855 76.772 67.5048V71.3152C76.772 71.6931 76.9726 71.8821 77.3738 71.8821C77.5743 71.8821 77.7696 71.8558 77.9596 71.8033L77.8963 72.7953C77.6852 72.9003 77.4107 72.9528 77.0729 72.9528C76.7668 72.9528 76.4923 72.895 76.2495 72.7796C76.0067 72.6641 75.8167 72.4909 75.6795 72.26C75.5422 72.0185 75.4736 71.7194 75.4736 71.3625V71.205L75.7903 71.2523C75.6636 71.6616 75.4472 71.9975 75.1411 72.26C74.835 72.5119 74.4919 72.7008 74.1119 72.8268C73.7318 72.9423 73.3571 73 72.9876 73C72.5231 73 72.0903 72.9213 71.6892 72.7638C71.2881 72.6064 70.9661 72.3702 70.7233 72.0553C70.4911 71.7299 70.3749 71.331 70.3749 70.8586C70.3749 70.2708 70.5702 69.7879 70.9608 69.41C71.362 69.0216 71.9162 68.7592 72.6234 68.6227L75.7586 68.0087V69.0479L73.2093 69.5675C72.692 69.6724 72.3067 69.8194 72.0534 70.0083C71.8 70.1973 71.6734 70.4597 71.6734 70.7956C71.6734 71.121 71.8 71.3887 72.0534 71.5987C72.3173 71.7981 72.6868 71.8978 73.1618 71.8978C73.4679 71.8978 73.7582 71.8611 74.0327 71.7876C74.3177 71.7036 74.5711 71.5829 74.7927 71.4255C75.0144 71.2575 75.1886 71.0528 75.3153 70.8114C75.442 70.5594 75.5053 70.2655 75.5053 69.9296V67.7567Z" fill="white"/>
<path d="M81.0538 61.3483V70.8429C81.0538 71.2418 81.1277 71.5199 81.2755 71.6774C81.4232 71.8243 81.6608 71.8978 81.988 71.8978C82.1991 71.8978 82.3733 71.8821 82.5105 71.8506C82.6478 71.8191 82.8325 71.7614 83.0647 71.6774L82.8589 72.7796C82.69 72.8531 82.5053 72.9055 82.3047 72.937C82.1041 72.979 81.8983 73 81.6871 73C81.0432 73 80.5629 72.8268 80.2462 72.4804C79.9401 72.134 79.787 71.6039 79.787 70.8901V61.3483H81.0538Z" fill="white"/>
<path d="M92.8081 64.8123C93.357 64.8123 93.8373 64.8963 94.249 65.0642C94.6713 65.2322 95.0355 65.4736 95.3416 65.7885C95.6477 66.1035 95.8958 66.4761 96.0858 66.9065L94.8824 67.4733C94.7135 66.9695 94.4549 66.5863 94.1065 66.3239C93.7687 66.051 93.3253 65.9145 92.7764 65.9145C92.2486 65.9145 91.7947 66.0352 91.4147 66.2766C91.0346 66.5076 90.7443 66.8487 90.5438 67.3001C90.3432 67.741 90.2429 68.2763 90.2429 68.9062C90.2429 69.5255 90.3432 70.0608 90.5438 70.5122C90.7443 70.9636 91.0346 71.31 91.4147 71.5514C91.7947 71.7824 92.2486 71.8978 92.7764 71.8978C93.1881 71.8978 93.5417 71.8348 93.8373 71.7089C94.1434 71.5829 94.3915 71.3992 94.5816 71.1578C94.7821 70.9163 94.9193 70.6224 94.9932 70.276L96.165 70.6854C95.9855 71.1683 95.7374 71.5829 95.4208 71.9293C95.1146 72.2757 94.7399 72.5434 94.2965 72.7323C93.8637 72.9108 93.3676 73 92.8081 73C92.0692 73 91.4094 72.8373 90.8288 72.5119C90.2482 72.1865 89.7943 71.7194 89.467 71.1105C89.1398 70.4912 88.9762 69.7564 88.9762 68.9062C88.9762 68.0559 89.1398 67.3264 89.467 66.7175C89.7943 66.0982 90.2482 65.6258 90.8288 65.3004C91.4094 64.975 92.0692 64.8123 92.8081 64.8123Z" fill="white"/>
<path d="M101.669 64.8123C102.418 64.8123 103.078 64.975 103.648 65.3004C104.228 65.6258 104.682 66.0982 105.01 66.7175C105.337 67.3264 105.5 68.0559 105.5 68.9062C105.5 69.7564 105.337 70.4912 105.01 71.1105C104.682 71.7194 104.228 72.1865 103.648 72.5119C103.078 72.8373 102.418 73 101.669 73C100.93 73 100.27 72.8373 99.6892 72.5119C99.1087 72.1865 98.6547 71.7194 98.3275 71.1105C98.0003 70.4912 97.8366 69.7564 97.8366 68.9062C97.8366 68.0559 98.0003 67.3264 98.3275 66.7175C98.6547 66.0982 99.1087 65.6258 99.6892 65.3004C100.27 64.975 100.93 64.8123 101.669 64.8123ZM101.669 65.8988C101.13 65.8988 100.671 66.0195 100.291 66.2609C99.9109 66.5023 99.6154 66.8487 99.4042 67.3001C99.2037 67.741 99.1034 68.2763 99.1034 68.9062C99.1034 69.5255 99.2037 70.0608 99.4042 70.5122C99.6154 70.9636 99.9109 71.31 100.291 71.5514C100.671 71.7928 101.13 71.9136 101.669 71.9136C102.207 71.9136 102.666 71.7928 103.046 71.5514C103.426 71.31 103.716 70.9636 103.917 70.5122C104.128 70.0608 104.234 69.5255 104.234 68.9062C104.234 68.2763 104.128 67.741 103.917 67.3001C103.716 66.8487 103.426 66.5023 103.046 66.2609C102.666 66.0195 102.207 65.8988 101.669 65.8988Z" fill="white"/>
<path d="M107.885 72.8426V64.9698H108.994L109.105 66.7333L108.899 66.5601C109.068 66.1402 109.295 65.8043 109.58 65.5524C109.865 65.2899 110.192 65.101 110.561 64.9855C110.941 64.87 111.332 64.8123 111.733 64.8123C112.303 64.8123 112.82 64.9225 113.285 65.143C113.749 65.3529 114.119 65.6783 114.393 66.1192C114.678 66.5601 114.821 67.1217 114.821 67.804V72.8426H113.554V68.2448C113.554 67.3736 113.364 66.77 112.984 66.4341C112.614 66.0877 112.155 65.9145 111.606 65.9145C111.226 65.9145 110.846 66.0037 110.466 66.1822C110.086 66.3606 109.77 66.6493 109.516 67.0482C109.273 67.4471 109.152 67.9824 109.152 68.6542V72.8426H107.885Z" fill="white"/>
<path d="M117.689 72.8426V64.9698H118.797L118.908 66.7333L118.702 66.5601C118.871 66.1402 119.098 65.8043 119.383 65.5524C119.668 65.2899 119.996 65.101 120.365 64.9855C120.745 64.87 121.136 64.8123 121.537 64.8123C122.107 64.8123 122.624 64.9225 123.089 65.143C123.553 65.3529 123.922 65.6783 124.197 66.1192C124.482 66.5601 124.624 67.1217 124.624 67.804V72.8426H123.358V68.2448C123.358 67.3736 123.168 66.77 122.788 66.4341C122.418 66.0877 121.959 65.9145 121.41 65.9145C121.03 65.9145 120.65 66.0037 120.27 66.1822C119.89 66.3606 119.573 66.6493 119.32 67.0482C119.077 67.4471 118.956 67.9824 118.956 68.6542V72.8426H117.689Z" fill="white"/>
<path d="M130.802 73C130.053 73 129.382 72.8373 128.791 72.5119C128.211 72.1865 127.757 71.7194 127.429 71.1105C127.102 70.4912 126.939 69.7564 126.939 68.9062C126.939 68.0559 127.102 67.3264 127.429 66.7175C127.757 66.0982 128.205 65.6258 128.775 65.3004C129.345 64.975 129.995 64.8123 130.723 64.8123C131.462 64.8123 132.09 64.9698 132.607 65.2847C133.135 65.5996 133.536 66.03 133.811 66.5758C134.085 67.1112 134.222 67.7147 134.222 68.3866C134.222 68.565 134.217 68.7277 134.207 68.8747C134.196 69.0216 134.18 69.1528 134.159 69.2683H127.762V68.1504H133.605L132.956 68.2763C132.956 67.5205 132.744 66.938 132.322 66.5286C131.911 66.1192 131.367 65.9145 130.691 65.9145C130.174 65.9145 129.725 66.0352 129.345 66.2766C128.976 66.5076 128.686 66.8487 128.474 67.3001C128.274 67.741 128.174 68.2763 128.174 68.9062C128.174 69.5255 128.279 70.0608 128.49 70.5122C128.701 70.9636 128.997 71.31 129.377 71.5514C129.768 71.7824 130.232 71.8978 130.77 71.8978C131.351 71.8978 131.821 71.7876 132.18 71.5672C132.549 71.3467 132.845 71.0476 133.066 70.6697L134.064 71.2523C133.863 71.6091 133.605 71.9188 133.288 72.1812C132.982 72.4437 132.618 72.6484 132.196 72.7953C131.784 72.9318 131.319 73 130.802 73Z" fill="white"/>
<path d="M139.909 64.8123C140.458 64.8123 140.938 64.8963 141.35 65.0642C141.772 65.2322 142.137 65.4736 142.443 65.7885C142.749 66.1035 142.997 66.4761 143.187 66.9065L141.984 67.4733C141.815 66.9695 141.556 66.5863 141.208 66.3239C140.87 66.051 140.427 65.9145 139.878 65.9145C139.35 65.9145 138.896 66.0352 138.516 66.2766C138.136 66.5076 137.845 66.8487 137.645 67.3001C137.444 67.741 137.344 68.2763 137.344 68.9062C137.344 69.5255 137.444 70.0608 137.645 70.5122C137.845 70.9636 138.136 71.31 138.516 71.5514C138.896 71.7824 139.35 71.8978 139.878 71.8978C140.289 71.8978 140.643 71.8348 140.938 71.7089C141.245 71.5829 141.493 71.3992 141.683 71.1578C141.883 70.9163 142.02 70.6224 142.094 70.276L143.266 70.6854C143.087 71.1683 142.839 71.5829 142.522 71.9293C142.216 72.2757 141.841 72.5434 141.398 72.7323C140.965 72.9108 140.469 73 139.909 73C139.17 73 138.511 72.8373 137.93 72.5119C137.349 72.1865 136.895 71.7194 136.568 71.1105C136.241 70.4912 136.077 69.7564 136.077 68.9062C136.077 68.0559 136.241 67.3264 136.568 66.7175C136.895 66.0982 137.349 65.6258 137.93 65.3004C138.511 64.975 139.17 64.8123 139.909 64.8123Z" fill="white"/>
<path d="M147.36 62.7339V70.6697C147.36 71.0581 147.471 71.3467 147.693 71.5357C147.915 71.7246 148.2 71.8191 148.548 71.8191C148.854 71.8191 149.118 71.7666 149.34 71.6616C149.561 71.5567 149.762 71.415 149.941 71.2365L150.385 72.2915C150.142 72.5119 149.852 72.6851 149.514 72.8111C149.187 72.937 148.807 73 148.374 73C147.973 73 147.598 72.9318 147.25 72.7953C146.901 72.6484 146.622 72.4227 146.41 72.1183C146.21 71.8033 146.104 71.394 146.094 70.8901V63.0803L147.36 62.7339ZM150.242 64.9698V66.0562H144.51V64.9698H150.242Z" fill="white"/>
<path d="M152.759 63.4582C152.474 63.4582 152.242 63.3742 152.062 63.2063C151.893 63.0278 151.809 62.7969 151.809 62.5135C151.809 62.23 151.893 62.0043 152.062 61.8364C152.242 61.6579 152.474 61.5687 152.759 61.5687C153.044 61.5687 153.271 61.6579 153.44 61.8364C153.619 62.0043 153.709 62.23 153.709 62.5135C153.709 62.7969 153.619 63.0278 153.44 63.2063C153.271 63.3742 153.044 63.4582 152.759 63.4582ZM153.392 64.9698V72.8426H152.126V64.9698H153.392Z" fill="white"/>
<path d="M159.609 64.8123C160.359 64.8123 161.019 64.975 161.589 65.3004C162.169 65.6258 162.623 66.0982 162.951 66.7175C163.278 67.3264 163.441 68.0559 163.441 68.9062C163.441 69.7564 163.278 70.4912 162.951 71.1105C162.623 71.7194 162.169 72.1865 161.589 72.5119C161.019 72.8373 160.359 73 159.609 73C158.871 73 158.211 72.8373 157.63 72.5119C157.05 72.1865 156.596 71.7194 156.268 71.1105C155.941 70.4912 155.778 69.7564 155.778 68.9062C155.778 68.0559 155.941 67.3264 156.268 66.7175C156.596 66.0982 157.05 65.6258 157.63 65.3004C158.211 64.975 158.871 64.8123 159.609 64.8123ZM159.609 65.8988C159.071 65.8988 158.612 66.0195 158.232 66.2609C157.852 66.5023 157.556 66.8487 157.345 67.3001C157.145 67.741 157.044 68.2763 157.044 68.9062C157.044 69.5255 157.145 70.0608 157.345 70.5122C157.556 70.9636 157.852 71.31 158.232 71.5514C158.612 71.7928 159.071 71.9136 159.609 71.9136C160.148 71.9136 160.607 71.7928 160.987 71.5514C161.367 71.31 161.657 70.9636 161.858 70.5122C162.069 70.0608 162.175 69.5255 162.175 68.9062C162.175 68.2763 162.069 67.741 161.858 67.3001C161.657 66.8487 161.367 66.5023 160.987 66.2609C160.607 66.0195 160.148 65.8988 159.609 65.8988Z" fill="white"/>
<path d="M165.826 72.8426V64.9698H166.935L167.045 66.7333L166.84 66.5601C167.008 66.1402 167.235 65.8043 167.52 65.5524C167.805 65.2899 168.133 65.101 168.502 64.9855C168.882 64.87 169.273 64.8123 169.674 64.8123C170.244 64.8123 170.761 64.9225 171.226 65.143C171.69 65.3529 172.06 65.6783 172.334 66.1192C172.619 66.5601 172.762 67.1217 172.762 67.804V72.8426H171.495V68.2448C171.495 67.3736 171.305 66.77 170.925 66.4341C170.555 66.0877 170.096 65.9145 169.547 65.9145C169.167 65.9145 168.787 66.0037 168.407 66.1822C168.027 66.3606 167.71 66.6493 167.457 67.0482C167.214 67.4471 167.093 67.9824 167.093 68.6542V72.8426H165.826Z" fill="white"/>
<path d="M176.263 70.9531C176.569 70.9531 176.818 71.0476 177.008 71.2365C177.198 71.4255 177.293 71.6721 177.293 71.9765C177.293 72.281 177.198 72.5276 177.008 72.7166C176.818 72.9055 176.569 73 176.263 73C175.957 73 175.709 72.9055 175.519 72.7166C175.329 72.5276 175.234 72.281 175.234 71.9765C175.234 71.6721 175.329 71.4255 175.519 71.2365C175.709 71.0476 175.957 70.9531 176.263 70.9531Z" fill="white"/>
<path d="M90.2196 14.3563C94.5565 13.9145 97.089 12.7155 97.089 9.46538C97.089 5.83665 93.2903 4.38516 85.123 4.38516H65.1795V24.5798H86.7058C93.6701 24.5798 98.102 22.7812 98.102 18.553C98.102 15.3029 94.8414 14.514 90.2196 14.3563ZM85.5345 10.2542C87.7504 10.2542 88.5418 10.7591 88.5418 11.7688C88.5418 12.7786 87.7504 13.315 85.5345 13.315H73.0936V10.2542H85.5345ZM86.8641 18.6476H73.0936V15.5869H86.8641C89.08 15.5869 89.8714 16.1864 89.8714 17.133C89.8714 18.0797 89.08 18.6476 86.8641 18.6476Z" fill="white"/>
<path d="M100.94 2.80745V24.5798H108.537V2.80745H100.94Z" fill="white"/>
<path d="M120.23 1.00887H112.189V5.77354H120.23V1.00887ZM112.411 9.11829V24.5798H120.008V9.11829H112.411Z" fill="white"/>
<path d="M123.245 19.0578C122.96 21.2035 124.891 25.0531 135.528 25.0531C142.809 25.0531 147.526 23.6332 147.526 20.0045C147.526 16.0602 142.587 15.9655 137.681 15.9655C132.046 15.9655 131.001 15.5553 131.001 14.6087C131.001 13.6621 132.267 13.3781 135.528 13.3781C138.599 13.3781 139.675 13.6305 140.118 14.6718H146.924C146.956 11.3271 143.442 8.64497 135.528 8.64497C128.722 8.64497 123.087 9.81248 123.087 13.8514C123.087 17.1646 126.759 17.7957 132.9 17.7957C137.712 17.7957 139.58 18.1112 139.58 19.121C139.58 19.8151 139.073 20.32 135.496 20.32C132.394 20.32 130.811 20.1307 130.241 19.0578H123.245Z" fill="white"/>
<path d="M149.893 19.0578C149.608 21.2035 151.54 25.0531 162.176 25.0531C169.457 25.0531 174.174 23.6332 174.174 20.0045C174.174 16.0602 169.235 15.9655 164.329 15.9655C158.694 15.9655 157.649 15.5553 157.649 14.6087C157.649 13.6621 158.915 13.3781 162.176 13.3781C165.247 13.3781 166.323 13.6305 166.766 14.6718H173.572C173.604 11.3271 170.09 8.64497 162.176 8.64497C155.37 8.64497 149.735 9.81248 149.735 13.8514C149.735 17.1646 153.407 17.7957 159.549 17.7957C164.36 17.7957 166.228 18.1112 166.228 19.121C166.228 19.8151 165.722 20.32 162.144 20.32C159.042 20.32 157.459 20.1307 156.889 19.0578H149.893Z" fill="white"/>
<path d="M38.1715 9.136C40.6757 7.4138 42.2261 5.43011 43.0748 4.1022C43.9235 5.43011 45.4739 7.41176 47.9781 9.136C45.476 10.8582 43.9235 12.8398 43.0748 14.1678C42.2282 12.8419 40.6757 10.8582 38.1715 9.136Z" fill="white"/>
<path d="M54.3011 16.7032C53.7759 16.0577 52.9272 15.1996 51.6709 14.409C52.9272 13.6184 53.7738 12.7604 54.3011 12.1148C54.8263 12.7604 55.675 13.6184 56.9292 14.409C55.675 15.1996 54.8284 16.0577 54.3011 16.7032Z" fill="white"/>
<path d="M47.4753 22.5375C46.918 21.7423 46.241 21.033 45.4669 20.4333C46.3871 19.7203 47.0383 18.9522 47.4753 18.327C47.9123 18.9501 48.5635 19.7203 49.4837 20.4333C48.7096 21.033 48.0326 21.7423 47.4753 22.5375Z" fill="white"/>
<path d="M43.9015 16.3415C43.9183 16.3027 45.6011 12.4885 50.0779 9.88374L51.3636 9.13602L50.0779 8.38626C45.6011 5.78356 43.9183 1.96939 43.9036 1.93262L43.0801 0L42.2482 1.93058C42.2314 1.96939 40.5486 5.78356 36.0718 8.38831L34.784 9.13602L36.0697 9.88374C40.5465 12.4885 42.2293 16.3027 42.2461 16.3415L43.0696 18.27L43.9015 16.3415ZM38.1715 9.136C40.6757 7.4138 42.2261 5.43011 43.0748 4.1022C43.9235 5.43011 45.4739 7.41176 47.9781 9.136C45.476 10.8582 43.9235 12.8398 43.0748 14.1678C42.2282 12.8419 40.6757 10.8582 38.1715 9.136Z" fill="white"/>
<path d="M58.8631 13.7245C56.0648 12.3802 55.0102 10.4292 55.0018 10.4129L54.3065 9.07269L53.6006 10.4108C53.5901 10.4292 52.5355 12.3802 49.7372 13.7265L48.3128 14.4109L49.7372 15.0953C52.5292 16.4375 53.5859 18.3803 53.6006 18.411L54.2939 19.7491L54.9997 18.411C55.0102 18.3926 56.0648 16.4416 58.8631 15.0953L60.2875 14.4109L58.8631 13.7245ZM54.3011 16.7032C53.7759 16.0577 52.9272 15.1996 51.6709 14.409C52.9272 13.6184 53.7738 12.7604 54.3011 12.1148C54.8263 12.7604 55.675 13.6184 56.9292 14.409C55.675 15.1996 54.8284 16.0577 54.3011 16.7032Z" fill="white"/>
<path d="M48.2042 16.4945L47.4836 14.7499L46.7504 16.4925C46.742 16.5109 45.9038 18.4558 43.6958 19.7837L42.616 20.4333L43.6958 21.0809C45.8933 22.4027 46.7336 24.3333 46.7504 24.3721L47.471 26.1147L48.2042 24.3721C48.2126 24.3517 49.0487 22.4088 51.2588 21.0809L52.3386 20.4333L51.2588 19.7837C49.0487 18.4558 48.2105 16.5129 48.2042 16.4945ZM47.4753 22.5375C46.918 21.7423 46.241 21.033 45.4669 20.4333C46.3871 19.7203 47.0383 18.9522 47.4753 18.327C47.9123 18.9501 48.5635 19.7203 49.4837 20.4333C48.7096 21.033 48.0326 21.7423 47.4753 22.5375Z" fill="white"/>
</svg>
