<svg width="30" height="30" viewBox="0 0 30 30" fill="none" xmlns="http://www.w3.org/2000/svg">
<circle cx="15" cy="15" r="15" fill="url(#paint0_linear)"/>
<path d="M22.5002 15.7895H16.5792V21.7106C16.5792 22.3619 16.0463 22.8948 15.3949 22.8948C14.7436 22.8948 14.2107 22.3619 14.2107 21.7106V15.7895H8.28968C7.63836 15.7895 7.10547 15.2566 7.10547 14.6053C7.10547 13.954 7.63836 13.4211 8.28968 13.4211H14.2107V7.50005C14.2107 6.84873 14.7436 6.31584 15.3949 6.31584C16.0463 6.31584 16.5792 6.84873 16.5792 7.50005V13.4211H22.5002C23.1515 13.4211 23.6844 13.954 23.6844 14.6053C23.6844 15.2566 23.1515 15.7895 22.5002 15.7895Z" fill="white"/>
<defs>
<linearGradient id="paint0_linear" x1="15" y1="-15" x2="-15" y2="15" gradientUnits="userSpaceOnUse">
<stop stop-color="#632B75"/>
<stop offset="1" stop-color="#FE3476"/>
</linearGradient>
</defs>
</svg>
