<svg width="64" height="64" viewBox="0 0 64 64" fill="none" xmlns="http://www.w3.org/2000/svg">
<circle cx="32" cy="32" r="32" fill="#ECECEC"/>
<path d="M29.1427 18.6667V22.4762L27.2379 23.4286L24.3808 20.5714L20.5713 24.3809L23.4284 27.2381L22.476 29.1429H18.6665V34.8571H22.476L23.4284 36.7619L20.5713 39.619L24.3808 43.4286L27.2379 40.5714L29.1427 41.5238V45.3333H34.857V41.5238L36.7617 40.5714L39.6189 43.4286L43.4284 39.619L40.5713 36.7619L41.5236 34.8571H45.3332V29.1429H41.5236L40.5713 27.2381L43.4284 24.3809L39.6189 20.5714L36.7617 23.4286L34.857 22.4762V18.6667H29.1427Z" stroke="#CBCBCB" stroke-width="2" stroke-linecap="round" stroke-linejoin="round"/>
<path d="M32.0004 35.8095C34.1044 35.8095 35.81 34.1039 35.81 32C35.81 29.8961 34.1044 28.1905 32.0004 28.1905C29.8965 28.1905 28.1909 29.8961 28.1909 32C28.1909 34.1039 29.8965 35.8095 32.0004 35.8095Z" stroke="#CBCBCB" stroke-width="2" stroke-linecap="round" stroke-linejoin="round"/>
</svg>
