<svg width="52" height="52" viewBox="0 0 52 52" fill="none" xmlns="http://www.w3.org/2000/svg">
<g filter="url(#filter0_d)">
<ellipse cx="25.8227" cy="24" rx="23.8227" ry="24" fill="white"/>
</g>
<path d="M17.233 20.6568L19.0767 19.3646C19.2232 19.2619 19.3882 19.1901 19.5621 19.1535C19.7359 19.1169 19.9151 19.1161 20.0892 19.1513C20.2634 19.1865 20.4289 19.2569 20.5763 19.3584C20.7236 19.4599 20.8499 19.5905 20.9476 19.7426C21.1474 20.0506 21.2213 20.4269 21.1535 20.7904C21.0856 21.1539 20.8814 21.4754 20.5849 21.6858L16.1162 24.8176C15.9696 24.9203 15.8046 24.9921 15.6308 25.0287C15.4569 25.0653 15.2777 25.0661 15.1036 25.0309C14.9295 24.9957 14.7639 24.9253 14.6166 24.8238C14.4692 24.7223 14.343 24.5917 14.2453 24.4396L11.2316 19.7972C11.031 19.4892 10.9566 19.1124 11.0245 18.7485C11.0924 18.3846 11.2971 18.0628 11.5943 17.8526C11.7409 17.7499 11.9059 17.6781 12.0797 17.6415C12.2536 17.6049 12.4328 17.6041 12.6069 17.6393C12.781 17.6745 12.9466 17.7449 13.094 17.8464C13.2413 17.9479 13.3675 18.0785 13.4653 18.2306L14.6094 19.9932C16.2675 14.214 21.4221 10 27.5244 10C34.9672 10 41 16.2678 41 24C41 31.7322 34.9672 38 27.5244 38C27.3464 37.9989 27.1704 37.9618 27.0064 37.8909C26.8423 37.8199 26.6935 37.7165 26.5684 37.5865C26.4433 37.4565 26.3443 37.3024 26.2772 37.1332C26.2101 36.9639 26.1761 36.7827 26.1772 36.6C26.1772 35.8272 26.7813 35.2 27.5244 35.2C33.4781 35.2 38.3054 30.1852 38.3054 24C38.3054 17.8148 33.4781 12.8 27.5244 12.8C22.6917 12.8 18.6021 16.104 17.233 20.6568Z" fill="#89287C"/>
<defs>
<filter id="filter0_d" x="0" y="0" width="51.6453" height="52" filterUnits="userSpaceOnUse" color-interpolation-filters="sRGB">
<feFlood flood-opacity="0" result="BackgroundImageFix"/>
<feColorMatrix in="SourceAlpha" type="matrix" values="0 0 0 0 0 0 0 0 0 0 0 0 0 0 0 0 0 0 127 0"/>
<feOffset dy="2"/>
<feGaussianBlur stdDeviation="1"/>
<feColorMatrix type="matrix" values="0 0 0 0 0 0 0 0 0 0 0 0 0 0 0 0 0 0 0.05 0"/>
<feBlend mode="normal" in2="BackgroundImageFix" result="effect1_dropShadow"/>
<feBlend mode="normal" in="SourceGraphic" in2="effect1_dropShadow" result="shape"/>
</filter>
</defs>
</svg>
