<svg width="380" height="108" viewBox="0 0 380 108" fill="none" xmlns="http://www.w3.org/2000/svg">
<path fill-rule="evenodd" clip-rule="evenodd" d="M44.2414 28.9642C36.4083 21.4753 23.9867 21.5819 16.2844 29.2843C8.47389 37.0947 8.47389 49.758 16.2844 57.5685L21.0412 62.3254C20.5179 69.0038 22.2219 75.8241 26.153 81.5793L9.21331 64.6396C-2.50242 52.9239 -2.50242 33.9289 9.21331 22.2132C20.822 10.6045 39.5775 10.4984 51.3168 21.895C51.1934 22.0143 51.0708 22.1348 50.949 22.2566L44.2414 28.9642ZM53.1875 94.5999C60.3414 94.2326 67.3888 91.3169 72.8529 85.8528C74.1192 84.5865 75.2486 83.2353 76.2411 81.8173L72.1622 85.8962C66.8741 91.1843 60.1029 94.0856 53.1875 94.5999Z" fill="#89287C"/>
<path fill-rule="evenodd" clip-rule="evenodd" d="M65.0913 78.8251L86.3045 57.6119C94.115 49.8015 94.115 37.1382 86.3045 29.3277C78.494 21.5172 65.8307 21.5172 58.0202 29.3277L36.807 50.5409C28.9965 58.3514 28.9965 71.0147 36.807 78.8251C44.6175 86.6356 57.2808 86.6356 65.0913 78.8251ZM93.3756 22.2566C81.6598 10.5409 62.6649 10.5409 50.9492 22.2566L29.7359 43.4698C18.0202 55.1855 18.0202 74.1805 29.7359 85.8962C41.4517 97.6119 60.4466 97.6119 72.1624 85.8962L93.3756 64.683C105.091 52.9673 105.091 33.9723 93.3756 22.2566Z" fill="#89287C"/>
<mask id="mask0" mask-type="alpha" maskUnits="userSpaceOnUse" x="132" y="0" width="248" height="95">
<path d="M138.9 94.5C136.367 94.5 134.567 93.1667 133.5 90.5C132.5 87.8333 132 83.5667 132 77.7C132 69.0333 133.233 60.8 135.7 53C136.3 51.0667 137.267 49.6667 138.6 48.8C140 47.8667 141.933 47.4 144.4 47.4C145.733 47.4 146.667 47.5667 147.2 47.9C147.733 48.2333 148 48.8667 148 49.8C148 50.8667 147.5 53.2667 146.5 57C145.833 59.6667 145.3 62 144.9 64C144.5 65.9333 144.167 68.3667 143.9 71.3C145.7 66.1 147.833 61.7 150.3 58.1C152.833 54.5 155.4 51.8333 158 50.1C160.667 48.3 163.167 47.4 165.5 47.4C167.833 47.4 169.467 47.9333 170.4 49C171.4 50.0667 171.9 51.7 171.9 53.9C171.9 56.0333 171.267 59.9 170 65.5C169.467 67.9 169.1 69.7 168.9 70.9C172.233 62.7 175.933 56.7333 180 53C184.067 49.2667 187.867 47.4 191.4 47.4C195.733 47.4 197.9 49.5667 197.9 53.9C197.9 56.5 197.167 61.2 195.7 68C194.433 73.8 193.8 77.6333 193.8 79.5C193.8 82.1667 194.767 83.5 196.7 83.5C198.033 83.5 199.6 82.7 201.4 81.1C203.267 79.4333 205.733 76.7667 208.8 73.1C209.6 72.1667 210.5 71.7 211.5 71.7C212.367 71.7 213.033 72.1 213.5 72.9C214.033 73.7 214.3 74.8 214.3 76.2C214.3 78.8667 213.667 80.9333 212.4 82.4C209.533 85.9333 206.433 88.8333 203.1 91.1C199.833 93.3667 196.1 94.5 191.9 94.5C188.5 94.5 185.933 93.5333 184.2 91.6C182.467 89.6 181.6 86.7333 181.6 83C181.6 81.1333 182.067 77.8 183 73C183.867 68.8 184.3 65.9 184.3 64.3C184.3 63.2333 183.933 62.7 183.2 62.7C182.333 62.7 181.1 63.8333 179.5 66.1C177.9 68.3 176.3 71.2333 174.7 74.9C173.1 78.5667 171.8 82.4333 170.8 86.5C170.067 89.7 169.2 91.8333 168.2 92.9C167.267 93.9667 165.733 94.5 163.6 94.5C161.4 94.5 159.733 93.4667 158.6 91.4C157.533 89.2667 157 86.7 157 83.7C157 81.1667 157.333 77.5 158 72.7C158.533 68.4333 158.8 65.6333 158.8 64.3C158.8 63.2333 158.433 62.7 157.7 62.7C156.7 62.7 155.433 63.9 153.9 66.3C152.367 68.7 150.867 71.7667 149.4 75.5C148 79.2333 146.867 82.9 146 86.5C145.267 89.6333 144.4 91.7667 143.4 92.9C142.467 93.9667 140.967 94.5 138.9 94.5Z" fill="white"/>
<path d="M257.214 63.3C258.081 63.3 258.747 63.7333 259.214 64.6C259.681 65.4667 259.914 66.5667 259.914 67.9C259.914 71.1 258.947 73 257.014 73.6C253.014 75 248.614 75.8 243.814 76C242.547 81.6 240.047 86.1 236.314 89.5C232.581 92.8333 228.347 94.5 223.614 94.5C219.614 94.5 216.181 93.5333 213.314 91.6C210.514 89.6667 208.381 87.1 206.914 83.9C205.447 80.7 204.714 77.2333 204.714 73.5C204.714 68.4333 205.681 63.9333 207.614 60C209.547 56 212.214 52.9 215.614 50.7C219.014 48.4333 222.781 47.3 226.914 47.3C231.981 47.3 236.047 49.0667 239.114 52.6C242.247 56.0667 244.081 60.3667 244.614 65.5C247.747 65.3 251.481 64.6333 255.814 63.5C256.347 63.3667 256.814 63.3 257.214 63.3ZM224.414 83.9C226.547 83.9 228.381 83.0333 229.914 81.3C231.514 79.5667 232.581 77.0667 233.114 73.8C231.047 72.4 229.447 70.5667 228.314 68.3C227.247 66.0333 226.714 63.6333 226.714 61.1C226.714 60.0333 226.814 58.9667 227.014 57.9H226.514C223.847 57.9 221.614 59.2 219.814 61.8C218.081 64.3333 217.214 67.9333 217.214 72.6C217.214 76.2667 217.914 79.0667 219.314 81C220.781 82.9333 222.481 83.9 224.414 83.9Z" fill="white"/>
<path d="M289.231 71.7C290.098 71.7 290.765 72.1 291.231 72.9C291.765 73.7 292.031 74.8 292.031 76.2C292.031 78.8667 291.398 80.9333 290.131 82.4C287.265 85.9333 284.131 88.8333 280.731 91.1C277.398 93.3667 273.598 94.5 269.331 94.5C263.465 94.5 259.098 91.8333 256.231 86.5C253.431 81.1667 252.031 74.2667 252.031 65.8C252.031 57.6667 253.065 48.4 255.131 38C257.265 27.6 260.365 18.6667 264.431 11.2C268.565 3.73334 273.465 0 279.131 0C282.331 0 284.831 1.5 286.631 4.5C288.498 7.43334 289.431 11.6667 289.431 17.2C289.431 25.1333 287.231 34.3333 282.831 44.8C278.431 55.2667 272.465 65.6333 264.931 75.9C265.398 78.6333 266.165 80.6 267.231 81.8C268.298 82.9333 269.698 83.5 271.431 83.5C274.165 83.5 276.565 82.7333 278.631 81.2C280.698 79.6 283.331 76.9 286.531 73.1C287.331 72.1667 288.231 71.7 289.231 71.7ZM276.931 9.90001C275.398 9.90001 273.665 12.6667 271.731 18.2C269.798 23.7333 268.098 30.6 266.631 38.8C265.165 47 264.365 54.8667 264.231 62.4C268.965 54.6 272.731 46.8 275.531 39C278.331 31.1333 279.731 23.9667 279.731 17.5C279.731 12.4333 278.798 9.90001 276.931 9.90001Z" fill="white"/>
<path d="M321.848 71.7C322.715 71.7 323.382 72.1 323.848 72.9C324.382 73.7 324.648 74.8 324.648 76.2C324.648 78.8667 324.015 80.9333 322.748 82.4C319.882 85.9333 316.748 88.8333 313.348 91.1C310.015 93.3667 306.215 94.5 301.948 94.5C296.082 94.5 291.715 91.8333 288.848 86.5C286.048 81.1667 284.648 74.2667 284.648 65.8C284.648 57.6667 285.682 48.4 287.748 38C289.882 27.6 292.982 18.6667 297.048 11.2C301.182 3.73334 306.082 0 311.748 0C314.948 0 317.448 1.5 319.248 4.5C321.115 7.43334 322.048 11.6667 322.048 17.2C322.048 25.1333 319.848 34.3333 315.448 44.8C311.048 55.2667 305.082 65.6333 297.548 75.9C298.015 78.6333 298.782 80.6 299.848 81.8C300.915 82.9333 302.315 83.5 304.048 83.5C306.782 83.5 309.182 82.7333 311.248 81.2C313.315 79.6 315.948 76.9 319.148 73.1C319.948 72.1667 320.848 71.7 321.848 71.7ZM309.548 9.90001C308.015 9.90001 306.282 12.6667 304.348 18.2C302.415 23.7333 300.715 30.6 299.248 38.8C297.782 47 296.982 54.8667 296.848 62.4C301.582 54.6 305.348 46.8 308.148 39C310.948 31.1333 312.348 23.9667 312.348 17.5C312.348 12.4333 311.415 9.90001 309.548 9.90001Z" fill="white"/>
<path d="M329.666 40.8C326.866 40.8 324.766 40.1667 323.366 38.9C321.966 37.5667 321.266 35.7333 321.266 33.4C321.266 31.0667 322.166 29.1333 323.966 27.6C325.832 26 328.132 25.2 330.866 25.2C333.332 25.2 335.332 25.8 336.866 27C338.399 28.2 339.166 29.9 339.166 32.1C339.166 34.7667 338.299 36.9 336.566 38.5C334.832 40.0333 332.532 40.8 329.666 40.8ZM328.866 94.5C324.532 94.5 321.366 92.9667 319.366 89.9C317.432 86.8333 316.466 82.7667 316.466 77.7C316.466 74.7 316.832 70.8667 317.566 66.2C318.366 61.4667 319.366 57.0667 320.566 53C321.166 50.8667 321.966 49.4 322.966 48.6C323.966 47.8 325.566 47.4 327.766 47.4C331.166 47.4 332.866 48.5333 332.866 50.8C332.866 52.4667 332.232 56.3333 330.966 62.4C329.366 69.7333 328.566 74.7 328.566 77.3C328.566 79.3 328.832 80.8333 329.366 81.9C329.899 82.9667 330.799 83.5 332.066 83.5C333.266 83.5 334.766 82.6667 336.566 81C338.366 79.3333 340.766 76.7 343.766 73.1C344.566 72.1667 345.466 71.7 346.466 71.7C347.332 71.7 347.999 72.1 348.466 72.9C348.999 73.7 349.266 74.8 349.266 76.2C349.266 78.8667 348.632 80.9333 347.366 82.4C340.766 90.4667 334.599 94.5 328.866 94.5Z" fill="white"/>
<path d="M376.975 74.7C377.842 74.7 378.508 75.1 378.975 75.9C379.508 76.7 379.775 77.8 379.775 79.2C379.775 81.6 379.208 83.6667 378.075 85.4C376.208 88.2667 373.742 90.5 370.675 92.1C367.675 93.7 364.075 94.5 359.875 94.5C353.475 94.5 348.508 92.6 344.975 88.8C341.442 84.9333 339.675 79.7333 339.675 73.2C339.675 68.6 340.642 64.3333 342.575 60.4C344.508 56.4 347.175 53.2333 350.575 50.9C354.042 48.5667 357.942 47.4 362.275 47.4C366.142 47.4 369.242 48.5667 371.575 50.9C373.908 53.1667 375.075 56.2667 375.075 60.2C375.075 64.8 373.408 68.7667 370.075 72.1C366.808 75.3667 361.208 77.9667 353.275 79.9C354.875 82.9667 357.575 84.5 361.375 84.5C364.108 84.5 366.342 83.8667 368.075 82.6C369.875 81.3333 371.942 79.2 374.275 76.2C375.075 75.2 375.975 74.7 376.975 74.7ZM360.575 57.2C358.108 57.2 356.008 58.6333 354.275 61.5C352.608 64.3667 351.775 67.8333 351.775 71.9V72.1C355.708 71.1667 358.808 69.7667 361.075 67.9C363.342 66.0333 364.475 63.8667 364.475 61.4C364.475 60.1333 364.108 59.1333 363.375 58.4C362.708 57.6 361.775 57.2 360.575 57.2Z" fill="white"/>
</mask>
<g mask="url(#mask0)">
<rect x="-66" y="-52" width="504" height="211" fill="url(#paint0_linear)"/>
</g>
<defs>
<linearGradient id="paint0_linear" x1="-66" y1="54" x2="435.5" y2="54" gradientUnits="userSpaceOnUse">
<stop offset="0.260417" stop-color="#89287C"/>
<stop offset="0.772581" stop-color="#BD2323"/>
</linearGradient>
</defs>
</svg>
