<svg id="Capa_1" enable-background="new 0 0 512 512" height="512" viewBox="0 0 512 512" width="512" xmlns="http://www.w3.org/2000/svg"><g><circle cx="256" cy="256" fill="#0052be" r="256"/><path d="m256 0v512c141.385 0 256-114.615 256-256s-114.615-256-256-256z" fill="#00337a"/><g><g><path d="m348.704 396.764c-2.388 0-4.784-.569-6.979-1.723l-85.725-45.068-85.725 45.068c-5.054 2.658-11.177 2.215-15.797-1.142-4.619-3.356-6.933-9.043-5.967-14.671l16.372-95.456-69.353-67.602c-4.088-3.985-5.56-9.946-3.795-15.376 1.764-5.43 6.458-9.388 12.108-10.209l95.844-13.927 42.862-86.849c2.527-5.12 7.742-8.361 13.451-8.361s10.924 3.242 13.451 8.361l42.862 86.849 95.844 13.927c5.65.821 10.344 4.779 12.108 10.209 1.765 5.43.293 11.391-3.795 15.376l-69.353 67.603 16.372 95.456c.965 5.627-1.348 11.315-5.967 14.671-2.613 1.898-5.708 2.864-8.818 2.864z" fill="#fff16b"/></g><path d="m420.266 200.793c-1.764-5.43-6.458-9.388-12.108-10.209l-95.844-13.927-42.862-86.849c-2.527-5.12-7.742-8.361-13.451-8.361v268.526l85.725 45.068c2.194 1.154 4.591 1.723 6.979 1.723 3.11 0 6.205-.966 8.818-2.865 4.619-3.356 6.933-9.043 5.967-14.671l-16.372-95.456 69.353-67.603c4.088-3.984 5.559-9.945 3.795-15.376z" fill="#ffb454"/></g></g></svg>