<svg width="264" height="60" viewBox="0 0 264 60" fill="none" xmlns="http://www.w3.org/2000/svg">
<path d="M69 3.05176e-05V12.0001C69 18.5525 75.0293 23.8785 82.5185 23.998C82.5048 21.8541 82.4525 17.4791 82.4357 16.0774C82.4314 15.733 82.6016 15.4032 82.909 15.1865C83.1657 15.0055 83.5506 14.7859 84.1177 14.5586C85.6226 13.9564 85.5821 12.9902 84.7035 12.0829C84.0655 11.4244 84.1177 10.7629 84.2908 10.2551C84.3884 9.96662 84.1572 9.76744 83.8368 9.61578L83.0714 9.28804C83.0714 9.28804 83.6067 8.96274 83.5419 8.64144C83.4986 8.42938 83.3811 8.34234 83.1512 8.26352C83.0225 8.21911 82.7701 8.06034 82.6304 8.01771C82.2692 7.90713 82.0643 7.35823 82.1048 7.05536C82.2394 6.0497 82.504 5.28608 82.5068 4.27377L82.519 3.05176e-05H69Z" fill="white"/>
<path d="M83.5554 2.15831C83.5554 2.8118 83.5307 3.75172 83.5325 4.06125C83.5365 4.91036 83.299 5.57784 83.0484 6.29927C82.9569 6.56284 82.5333 7.38597 82.5601 7.54673C82.6865 8.30325 84.0392 7.93754 83.9997 8.22154L83.9938 8.26284C83.9676 8.45535 83.8389 8.72269 83.7224 8.93386C83.6362 9.08996 83.8641 9.22474 83.966 9.26893C84.0015 9.28425 84.0545 9.30335 84.118 9.32466C84.5949 9.48365 84.5903 9.76632 84.5778 10.2113C84.5594 10.8697 84.1888 10.7011 85.1373 12.1587C86.0574 13.572 85.9851 14.3605 84.6428 14.9924C84.4761 15.0708 83.5554 15.3612 83.5554 16.0507C83.5554 17.8495 83.5715 22.3753 83.5776 24H96.5402V12.0001C96.5402 5.6036 90.7954 0.37616 83.5554 0.0195522V2.15831Z" fill="white"/>
<path d="M125.192 7.504C122.552 7.504 120.2 8.248 118.688 9.808V2.8H113.744V22H118.688V19.912C120.2 21.496 122.552 22.24 125.192 22.24C129.32 22.24 133.328 20.464 133.328 14.872C133.328 9.256 129.32 7.504 125.192 7.504ZM123.536 18.136C120.44 18.136 118.688 17.32 118.688 14.872C118.688 12.424 120.44 11.608 123.536 11.608C126.656 11.608 128.408 12.424 128.408 14.872C128.408 17.32 126.656 18.136 123.536 18.136Z" fill="white"/>
<path d="M134.463 2.8V22H139.407V2.8H134.463Z" fill="white"/>
<path d="M140.838 2.8V6.496H145.782V2.8H140.838ZM140.838 7.744V22H145.782V7.744H140.838Z" fill="white"/>
<path d="M146.902 17.032C146.902 21.544 151.846 22.24 157.294 22.24C162.742 22.24 166.438 21.544 166.438 17.368C166.438 13.6 162.766 13.336 157.15 13C152.902 12.712 152.23 12.664 152.23 11.92C152.23 11.224 153.214 11.104 156.622 11.104C159.79 11.104 161.038 11.224 161.038 12.208H165.958C165.958 8.2 162.19 7.504 156.862 7.504C151.654 7.504 147.286 8.2 147.286 12.088C147.286 15.616 150.262 16.12 156.67 16.432C160.894 16.672 161.518 16.672 161.518 17.56C161.518 18.424 160.87 18.64 157.054 18.64C153.022 18.64 151.846 18.184 151.846 17.032H146.902Z" fill="white"/>
<path d="M167.27 17.032C167.27 21.544 172.214 22.24 177.662 22.24C183.11 22.24 186.806 21.544 186.806 17.368C186.806 13.6 183.134 13.336 177.518 13C173.27 12.712 172.598 12.664 172.598 11.92C172.598 11.224 173.582 11.104 176.99 11.104C180.158 11.104 181.406 11.224 181.406 12.208H186.326C186.326 8.2 182.558 7.504 177.23 7.504C172.022 7.504 167.654 8.2 167.654 12.088C167.654 15.616 170.63 16.12 177.038 16.432C181.262 16.672 181.886 16.672 181.886 17.56C181.886 18.424 181.238 18.64 177.422 18.64C173.39 18.64 172.214 18.184 172.214 17.032H167.27Z" fill="white"/>
<path d="M16.4763 47.536L12.9003 59H11.5083L8.6043 50.256C8.57763 50.1707 8.55096 50.08 8.5243 49.984C8.50296 49.888 8.47896 49.7867 8.4523 49.68C8.42563 49.7867 8.39896 49.888 8.3723 49.984C8.34563 50.08 8.31896 50.1707 8.2923 50.256L5.3723 59H3.9803L0.404297 47.536H1.6923C1.83096 47.536 1.94563 47.5707 2.0363 47.64C2.1323 47.7093 2.19363 47.7973 2.2203 47.904L4.5883 55.872C4.62563 56.016 4.6603 56.1707 4.6923 56.336C4.72963 56.5013 4.7643 56.6773 4.7963 56.864C4.83363 56.6773 4.87096 56.5013 4.9083 56.336C4.95096 56.1653 4.9963 56.0107 5.0443 55.872L7.7403 47.904C7.7723 47.8133 7.83363 47.7307 7.9243 47.656C8.0203 47.576 8.13496 47.536 8.2683 47.536H8.7163C8.85496 47.536 8.96696 47.5707 9.0523 47.64C9.13763 47.7093 9.20163 47.7973 9.2443 47.904L11.9323 55.872C11.9803 56.0107 12.023 56.16 12.0603 56.32C12.103 56.48 12.143 56.648 12.1803 56.824C12.207 56.648 12.2363 56.48 12.2683 56.32C12.3003 56.16 12.335 56.0107 12.3723 55.872L14.7483 47.904C14.775 47.808 14.8336 47.7227 14.9243 47.648C15.0203 47.5733 15.135 47.536 15.2683 47.536H16.4763Z" fill="white"/>
<path d="M19.2007 51.976C19.5473 51.608 19.9313 51.3147 20.3527 51.096C20.774 50.8773 21.2593 50.768 21.8087 50.768C22.2513 50.768 22.6407 50.8427 22.9767 50.992C23.318 51.136 23.6007 51.344 23.8247 51.616C24.054 51.8827 24.2273 52.2053 24.3447 52.584C24.462 52.9627 24.5207 53.3813 24.5207 53.84V59H23.0887V53.84C23.0887 53.2267 22.9473 52.752 22.6647 52.416C22.3873 52.0747 21.9633 51.904 21.3927 51.904C20.9713 51.904 20.5767 52.0053 20.2087 52.208C19.846 52.4107 19.51 52.6853 19.2007 53.032V59H17.7687V47.216H19.2007V51.976Z" fill="white"/>
<path d="M32.1145 54.064C32.1145 53.7333 32.0665 53.432 31.9705 53.16C31.8799 52.8827 31.7439 52.6453 31.5625 52.448C31.3865 52.2453 31.1705 52.0907 30.9145 51.984C30.6585 51.872 30.3679 51.816 30.0425 51.816C29.3599 51.816 28.8185 52.016 28.4185 52.416C28.0239 52.8107 27.7785 53.36 27.6825 54.064H32.1145ZM33.2665 57.864C33.0905 58.0773 32.8799 58.264 32.6345 58.424C32.3892 58.5787 32.1252 58.7067 31.8425 58.808C31.5652 58.9093 31.2772 58.984 30.9785 59.032C30.6799 59.0853 30.3839 59.112 30.0905 59.112C29.5305 59.112 29.0132 59.0187 28.5385 58.832C28.0692 58.64 27.6612 58.3627 27.3145 58C26.9732 57.632 26.7065 57.1787 26.5145 56.64C26.3225 56.1013 26.2265 55.4827 26.2265 54.784C26.2265 54.2187 26.3119 53.6907 26.4825 53.2C26.6585 52.7093 26.9092 52.2853 27.2345 51.928C27.5599 51.5653 27.9572 51.2827 28.4265 51.08C28.8959 50.872 29.4239 50.768 30.0105 50.768C30.4959 50.768 30.9439 50.8507 31.3545 51.016C31.7705 51.176 32.1279 51.4107 32.4265 51.72C32.7305 52.024 32.9679 52.4027 33.1385 52.856C33.3092 53.304 33.3945 53.816 33.3945 54.392C33.3945 54.616 33.3705 54.7653 33.3225 54.84C33.2745 54.9147 33.1839 54.952 33.0505 54.952H27.6345C27.6505 55.464 27.7199 55.9093 27.8425 56.288C27.9705 56.6667 28.1465 56.984 28.3705 57.24C28.5945 57.4907 28.8612 57.68 29.1705 57.808C29.4799 57.9307 29.8265 57.992 30.2105 57.992C30.5679 57.992 30.8745 57.952 31.1305 57.872C31.3919 57.7867 31.6159 57.696 31.8025 57.6C31.9892 57.504 32.1439 57.416 32.2666 57.336C32.3946 57.2507 32.5039 57.208 32.5945 57.208C32.7119 57.208 32.8025 57.2533 32.8665 57.344L33.2665 57.864Z" fill="white"/>
<path d="M36.4957 52.52C36.7517 51.9653 37.0663 51.5333 37.4397 51.224C37.813 50.9093 38.269 50.752 38.8077 50.752C38.9783 50.752 39.141 50.7707 39.2957 50.808C39.4557 50.8453 39.597 50.904 39.7197 50.984L39.6157 52.048C39.5837 52.1813 39.5037 52.248 39.3757 52.248C39.301 52.248 39.1917 52.232 39.0477 52.2C38.9037 52.168 38.741 52.152 38.5597 52.152C38.3037 52.152 38.0743 52.1893 37.8717 52.264C37.6743 52.3387 37.4957 52.4507 37.3357 52.6C37.181 52.744 37.0397 52.9253 36.9117 53.144C36.789 53.3573 36.677 53.6027 36.5757 53.88V59H35.1437V50.896H35.9597C36.1143 50.896 36.221 50.9253 36.2797 50.984C36.3383 51.0427 36.3783 51.144 36.3997 51.288L36.4957 52.52Z" fill="white"/>
<path d="M46.0677 54.064C46.0677 53.7333 46.0197 53.432 45.9237 53.16C45.833 52.8827 45.697 52.6453 45.5157 52.448C45.3397 52.2453 45.1237 52.0907 44.8677 51.984C44.6117 51.872 44.321 51.816 43.9957 51.816C43.313 51.816 42.7717 52.016 42.3717 52.416C41.977 52.8107 41.7317 53.36 41.6357 54.064H46.0677ZM47.2197 57.864C47.0437 58.0773 46.833 58.264 46.5877 58.424C46.3423 58.5787 46.0783 58.7067 45.7957 58.808C45.5183 58.9093 45.2303 58.984 44.9317 59.032C44.633 59.0853 44.337 59.112 44.0437 59.112C43.4837 59.112 42.9663 59.0187 42.4917 58.832C42.0223 58.64 41.6143 58.3627 41.2677 58C40.9263 57.632 40.6597 57.1787 40.4677 56.64C40.2757 56.1013 40.1797 55.4827 40.1797 54.784C40.1797 54.2187 40.265 53.6907 40.4357 53.2C40.6117 52.7093 40.8623 52.2853 41.1877 51.928C41.513 51.5653 41.9103 51.2827 42.3797 51.08C42.849 50.872 43.377 50.768 43.9637 50.768C44.449 50.768 44.897 50.8507 45.3077 51.016C45.7237 51.176 46.081 51.4107 46.3797 51.72C46.6837 52.024 46.921 52.4027 47.0917 52.856C47.2623 53.304 47.3477 53.816 47.3477 54.392C47.3477 54.616 47.3237 54.7653 47.2757 54.84C47.2277 54.9147 47.137 54.952 47.0037 54.952H41.5877C41.6037 55.464 41.673 55.9093 41.7957 56.288C41.9237 56.6667 42.0997 56.984 42.3237 57.24C42.5477 57.4907 42.8143 57.68 43.1237 57.808C43.433 57.9307 43.7797 57.992 44.1637 57.992C44.521 57.992 44.8277 57.952 45.0837 57.872C45.345 57.7867 45.569 57.696 45.7557 57.6C45.9423 57.504 46.097 57.416 46.2197 57.336C46.3477 57.2507 46.457 57.208 46.5477 57.208C46.665 57.208 46.7557 57.2533 46.8197 57.344L47.2197 57.864Z" fill="white"/>
<path d="M55.6785 59.128C55.0385 59.128 54.5452 58.9493 54.1985 58.592C53.8572 58.2347 53.6865 57.72 53.6865 57.048V52.088H52.7105C52.6252 52.088 52.5532 52.064 52.4945 52.016C52.4359 51.9627 52.4065 51.8827 52.4065 51.776V51.208L53.7345 51.04L54.0625 48.536C54.0785 48.456 54.1132 48.392 54.1665 48.344C54.2252 48.2907 54.2999 48.264 54.3905 48.264H55.1105V51.056H57.4545V52.088H55.1105V56.952C55.1105 57.2933 55.1932 57.5467 55.3585 57.712C55.5239 57.8773 55.7372 57.96 55.9985 57.96C56.1479 57.96 56.2759 57.9413 56.3825 57.904C56.4945 57.8613 56.5905 57.816 56.6705 57.768C56.7505 57.72 56.8172 57.6773 56.8705 57.64C56.9292 57.5973 56.9799 57.576 57.0225 57.576C57.0972 57.576 57.1639 57.6213 57.2225 57.712L57.6385 58.392C57.3932 58.6213 57.0972 58.8027 56.7505 58.936C56.4039 59.064 56.0465 59.128 55.6785 59.128Z" fill="white"/>
<path d="M70.1009 50.896L67.4769 59H66.3489C66.2103 59 66.1143 58.9093 66.0609 58.728L64.2689 53.232C64.2263 53.1093 64.1916 52.9867 64.1649 52.864C64.1383 52.736 64.1116 52.6107 64.0849 52.488C64.0583 52.6107 64.0316 52.736 64.0049 52.864C63.9783 52.9867 63.9436 53.112 63.9009 53.24L62.0769 58.728C62.0289 58.9093 61.9223 59 61.7569 59H60.6849L58.0609 50.896H59.1809C59.2929 50.896 59.3863 50.9253 59.4609 50.984C59.5409 51.0427 59.5943 51.112 59.6209 51.192L61.1729 56.408C61.2636 56.792 61.3356 57.1547 61.3889 57.496C61.4369 57.32 61.4849 57.1413 61.5329 56.96C61.5863 56.7787 61.6423 56.5947 61.7009 56.408L63.4129 51.16C63.4396 51.08 63.4849 51.0133 63.5489 50.96C63.6183 50.9067 63.7009 50.88 63.7969 50.88H64.4209C64.5276 50.88 64.6156 50.9067 64.6849 50.96C64.7543 51.0133 64.8023 51.08 64.8289 51.16L66.5009 56.408C66.5596 56.5947 66.6129 56.7787 66.6609 56.96C66.7089 57.1413 66.7543 57.32 66.7969 57.496C66.8236 57.32 66.8556 57.144 66.8929 56.968C66.9356 56.7867 66.9809 56.6 67.0289 56.408L68.6129 51.192C68.6396 51.1067 68.6903 51.0373 68.7649 50.984C68.8396 50.9253 68.9276 50.896 69.0289 50.896H70.1009Z" fill="white"/>
<path d="M74.794 50.768C75.386 50.768 75.9194 50.8667 76.394 51.064C76.8687 51.2613 77.274 51.5413 77.61 51.904C77.946 52.2667 78.202 52.7067 78.378 53.224C78.5594 53.736 78.65 54.3093 78.65 54.944C78.65 55.584 78.5594 56.16 78.378 56.672C78.202 57.184 77.946 57.6213 77.61 57.984C77.274 58.3467 76.8687 58.6267 76.394 58.824C75.9194 59.016 75.386 59.112 74.794 59.112C74.1967 59.112 73.658 59.016 73.178 58.824C72.7034 58.6267 72.298 58.3467 71.962 57.984C71.626 57.6213 71.3674 57.184 71.186 56.672C71.01 56.16 70.922 55.584 70.922 54.944C70.922 54.3093 71.01 53.736 71.186 53.224C71.3674 52.7067 71.626 52.2667 71.962 51.904C72.298 51.5413 72.7034 51.2613 73.178 51.064C73.658 50.8667 74.1967 50.768 74.794 50.768ZM74.794 58C75.594 58 76.1914 57.7333 76.586 57.2C76.9807 56.6613 77.178 55.912 77.178 54.952C77.178 53.9867 76.9807 53.2347 76.586 52.696C76.1914 52.1573 75.594 51.888 74.794 51.888C74.3887 51.888 74.034 51.9573 73.73 52.096C73.4314 52.2347 73.1807 52.4347 72.978 52.696C72.7807 52.9573 72.6314 53.28 72.53 53.664C72.434 54.0427 72.386 54.472 72.386 54.952C72.386 55.912 72.5834 56.6613 72.978 57.2C73.378 57.7333 73.9834 58 74.794 58Z" fill="white"/>
<path d="M84.5499 59V50.896H85.4059C85.6086 50.896 85.7339 50.9947 85.7819 51.192L85.8859 52.024C86.1846 51.656 86.5206 51.3547 86.8939 51.12C87.2673 50.8853 87.6993 50.768 88.1899 50.768C88.7339 50.768 89.1739 50.92 89.5099 51.224C89.8513 51.528 90.0966 51.9387 90.2459 52.456C90.3633 52.1627 90.5126 51.9093 90.6939 51.696C90.8806 51.4827 91.0886 51.3067 91.3179 51.168C91.5473 51.0293 91.7899 50.928 92.0459 50.864C92.3073 50.8 92.5713 50.768 92.8379 50.768C93.2646 50.768 93.6433 50.8373 93.9739 50.976C94.3099 51.1093 94.5926 51.3067 94.8219 51.568C95.0566 51.8293 95.2353 52.152 95.3579 52.536C95.4806 52.9147 95.5419 53.3493 95.5419 53.84V59H94.1099V53.84C94.1099 53.2053 93.9713 52.7253 93.6939 52.4C93.4166 52.0693 93.0166 51.904 92.4939 51.904C92.2593 51.904 92.0353 51.9467 91.8219 52.032C91.6139 52.112 91.4299 52.232 91.2699 52.392C91.1099 52.552 90.9819 52.7547 90.8859 53C90.7953 53.24 90.7499 53.52 90.7499 53.84V59H89.3179V53.84C89.3179 53.1893 89.1873 52.704 88.9259 52.384C88.6646 52.064 88.2833 51.904 87.7819 51.904C87.4299 51.904 87.1046 52 86.8059 52.192C86.5073 52.3787 86.2326 52.6347 85.9819 52.96V59H84.5499Z" fill="white"/>
<path d="M99.2102 50.896V59H97.7862V50.896H99.2102ZM99.5142 48.352C99.5142 48.4907 99.4848 48.6213 99.4262 48.744C99.3728 48.8613 99.2982 48.968 99.2022 49.064C99.1115 49.1547 99.0022 49.2267 98.8742 49.28C98.7515 49.3333 98.6208 49.36 98.4822 49.36C98.3435 49.36 98.2128 49.3333 98.0902 49.28C97.9728 49.2267 97.8688 49.1547 97.7782 49.064C97.6875 48.968 97.6155 48.8613 97.5622 48.744C97.5088 48.6213 97.4822 48.4907 97.4822 48.352C97.4822 48.2133 97.5088 48.0827 97.5622 47.96C97.6155 47.832 97.6875 47.7227 97.7782 47.632C97.8688 47.536 97.9728 47.4613 98.0902 47.408C98.2128 47.3547 98.3435 47.328 98.4822 47.328C98.6208 47.328 98.7515 47.3547 98.8742 47.408C99.0022 47.4613 99.1115 47.536 99.2022 47.632C99.2982 47.7227 99.3728 47.832 99.4262 47.96C99.4848 48.0827 99.5142 48.2133 99.5142 48.352Z" fill="white"/>
<path d="M102.894 52.072C103.07 51.8747 103.257 51.696 103.454 51.536C103.651 51.376 103.859 51.24 104.078 51.128C104.302 51.0107 104.537 50.9227 104.782 50.864C105.033 50.8 105.302 50.768 105.59 50.768C106.033 50.768 106.422 50.8427 106.758 50.992C107.099 51.136 107.382 51.344 107.606 51.616C107.835 51.8827 108.009 52.2053 108.126 52.584C108.243 52.9627 108.302 53.3813 108.302 53.84V59H106.87V53.84C106.87 53.2267 106.729 52.752 106.446 52.416C106.169 52.0747 105.745 51.904 105.174 51.904C104.753 51.904 104.358 52.0053 103.99 52.208C103.627 52.4107 103.291 52.6853 102.982 53.032V59H101.55V50.896H102.406C102.609 50.896 102.734 50.9947 102.782 51.192L102.894 52.072Z" fill="white"/>
<path d="M115.752 52.824C115.485 52.4667 115.197 52.2187 114.888 52.08C114.578 51.936 114.232 51.864 113.848 51.864C113.096 51.864 112.517 52.1333 112.112 52.672C111.706 53.2107 111.504 53.9787 111.504 54.976C111.504 55.504 111.549 55.9573 111.64 56.336C111.73 56.7093 111.864 57.0187 112.04 57.264C112.216 57.504 112.432 57.68 112.688 57.792C112.944 57.904 113.234 57.96 113.56 57.96C114.029 57.96 114.437 57.8533 114.784 57.64C115.136 57.4267 115.458 57.1253 115.752 56.736V52.824ZM117.176 47.216V59H116.328C116.125 59 115.997 58.9013 115.944 58.704L115.816 57.72C115.469 58.136 115.074 58.472 114.632 58.728C114.189 58.984 113.677 59.112 113.096 59.112C112.632 59.112 112.21 59.024 111.832 58.848C111.453 58.6667 111.13 58.4027 110.864 58.056C110.597 57.7093 110.392 57.2773 110.248 56.76C110.104 56.2427 110.032 55.648 110.032 54.976C110.032 54.3787 110.112 53.824 110.272 53.312C110.432 52.7947 110.661 52.3467 110.96 51.968C111.258 51.5893 111.624 51.2933 112.056 51.08C112.493 50.8613 112.984 50.752 113.528 50.752C114.024 50.752 114.448 50.8373 114.8 51.008C115.157 51.1733 115.474 51.4053 115.752 51.704V47.216H117.176Z" fill="white"/>
<path d="M124.145 52.232C124.081 52.3493 123.982 52.408 123.849 52.408C123.769 52.408 123.678 52.3787 123.577 52.32C123.476 52.2613 123.35 52.1973 123.201 52.128C123.057 52.0533 122.884 51.9867 122.681 51.928C122.478 51.864 122.238 51.832 121.961 51.832C121.721 51.832 121.505 51.864 121.313 51.928C121.121 51.9867 120.956 52.0693 120.817 52.176C120.684 52.2827 120.58 52.408 120.505 52.552C120.436 52.6907 120.401 52.8427 120.401 53.008C120.401 53.216 120.46 53.3893 120.577 53.528C120.7 53.6667 120.86 53.7867 121.057 53.888C121.254 53.9893 121.478 54.08 121.729 54.16C121.98 54.2347 122.236 54.3173 122.497 54.408C122.764 54.4933 123.022 54.5893 123.273 54.696C123.524 54.8027 123.748 54.936 123.945 55.096C124.142 55.256 124.3 55.4533 124.417 55.688C124.54 55.9173 124.601 56.1947 124.601 56.52C124.601 56.8933 124.534 57.24 124.401 57.56C124.268 57.8747 124.07 58.1493 123.809 58.384C123.548 58.6133 123.228 58.7947 122.849 58.928C122.47 59.0613 122.033 59.128 121.537 59.128C120.972 59.128 120.46 59.0373 120.001 58.856C119.542 58.6693 119.153 58.432 118.833 58.144L119.169 57.6C119.212 57.5307 119.262 57.4773 119.321 57.44C119.38 57.4027 119.454 57.384 119.545 57.384C119.641 57.384 119.742 57.4213 119.849 57.496C119.956 57.5707 120.084 57.6533 120.233 57.744C120.388 57.8347 120.574 57.9173 120.793 57.992C121.012 58.0667 121.284 58.104 121.609 58.104C121.886 58.104 122.129 58.0693 122.337 58C122.545 57.9253 122.718 57.8267 122.857 57.704C122.996 57.5813 123.097 57.44 123.161 57.28C123.23 57.12 123.265 56.9493 123.265 56.768C123.265 56.544 123.204 56.36 123.081 56.216C122.964 56.0667 122.806 55.9413 122.609 55.84C122.412 55.7333 122.185 55.6427 121.929 55.568C121.678 55.488 121.42 55.4053 121.153 55.32C120.892 55.2347 120.633 55.1387 120.377 55.032C120.126 54.92 119.902 54.7813 119.705 54.616C119.508 54.4507 119.348 54.248 119.225 54.008C119.108 53.7627 119.049 53.4667 119.049 53.12C119.049 52.8107 119.113 52.5147 119.241 52.232C119.369 51.944 119.556 51.6933 119.801 51.48C120.046 51.2613 120.348 51.088 120.705 50.96C121.062 50.832 121.47 50.768 121.929 50.768C122.462 50.768 122.94 50.8533 123.361 51.024C123.788 51.1893 124.156 51.4187 124.465 51.712L124.145 52.232Z" fill="white"/>
<path d="M130.441 59V50.896H131.297C131.499 50.896 131.625 50.9947 131.673 51.192L131.777 52.024C132.075 51.656 132.411 51.3547 132.785 51.12C133.158 50.8853 133.59 50.768 134.081 50.768C134.625 50.768 135.065 50.92 135.401 51.224C135.742 51.528 135.987 51.9387 136.137 52.456C136.254 52.1627 136.403 51.9093 136.585 51.696C136.771 51.4827 136.979 51.3067 137.209 51.168C137.438 51.0293 137.681 50.928 137.937 50.864C138.198 50.8 138.462 50.768 138.729 50.768C139.155 50.768 139.534 50.8373 139.865 50.976C140.201 51.1093 140.483 51.3067 140.713 51.568C140.947 51.8293 141.126 52.152 141.249 52.536C141.371 52.9147 141.433 53.3493 141.433 53.84V59H140.001V53.84C140.001 53.2053 139.862 52.7253 139.585 52.4C139.307 52.0693 138.907 51.904 138.385 51.904C138.15 51.904 137.926 51.9467 137.713 52.032C137.505 52.112 137.321 52.232 137.161 52.392C137.001 52.552 136.873 52.7547 136.777 53C136.686 53.24 136.641 53.52 136.641 53.84V59H135.209V53.84C135.209 53.1893 135.078 52.704 134.817 52.384C134.555 52.064 134.174 51.904 133.673 51.904C133.321 51.904 132.995 52 132.697 52.192C132.398 52.3787 132.123 52.6347 131.873 52.96V59H130.441Z" fill="white"/>
<path d="M147.989 55.352C147.333 55.3733 146.773 55.4267 146.309 55.512C145.85 55.592 145.474 55.6987 145.181 55.832C144.893 55.9653 144.682 56.1227 144.549 56.304C144.421 56.4853 144.357 56.688 144.357 56.912C144.357 57.1253 144.391 57.3093 144.461 57.464C144.53 57.6187 144.623 57.7467 144.741 57.848C144.863 57.944 145.005 58.016 145.165 58.064C145.33 58.1067 145.506 58.128 145.693 58.128C145.943 58.128 146.173 58.104 146.381 58.056C146.589 58.0027 146.783 57.928 146.965 57.832C147.151 57.736 147.327 57.6213 147.493 57.488C147.663 57.3547 147.829 57.2027 147.989 57.032V55.352ZM143.389 52.04C143.837 51.608 144.319 51.2853 144.837 51.072C145.354 50.8587 145.927 50.752 146.557 50.752C147.01 50.752 147.413 50.8267 147.765 50.976C148.117 51.1253 148.413 51.3333 148.653 51.6C148.893 51.8667 149.074 52.1893 149.197 52.568C149.319 52.9467 149.381 53.3627 149.381 53.816V59H148.749C148.61 59 148.503 58.9787 148.429 58.936C148.354 58.888 148.295 58.7973 148.253 58.664L148.093 57.896C147.879 58.0933 147.671 58.2693 147.469 58.424C147.266 58.5733 147.053 58.7013 146.829 58.808C146.605 58.9093 146.365 58.9867 146.109 59.04C145.858 59.0987 145.578 59.128 145.269 59.128C144.954 59.128 144.658 59.0853 144.381 59C144.103 58.9093 143.861 58.776 143.653 58.6C143.45 58.424 143.287 58.2027 143.165 57.936C143.047 57.664 142.989 57.344 142.989 56.976C142.989 56.656 143.077 56.3493 143.253 56.056C143.429 55.7573 143.714 55.4933 144.109 55.264C144.503 55.0347 145.018 54.848 145.653 54.704C146.287 54.5547 147.066 54.4693 147.989 54.448V53.816C147.989 53.1867 147.853 52.712 147.581 52.392C147.309 52.0667 146.911 51.904 146.389 51.904C146.037 51.904 145.741 51.9493 145.501 52.04C145.266 52.1253 145.061 52.224 144.885 52.336C144.714 52.4427 144.565 52.5413 144.437 52.632C144.314 52.7173 144.191 52.76 144.069 52.76C143.973 52.76 143.89 52.736 143.821 52.688C143.751 52.6347 143.693 52.5707 143.645 52.496L143.389 52.04Z" fill="white"/>
<path d="M152.982 47.216V54.152H153.35C153.457 54.152 153.545 54.1387 153.614 54.112C153.689 54.08 153.766 54.0187 153.846 53.928L156.406 51.184C156.481 51.0933 156.558 51.024 156.638 50.976C156.723 50.9227 156.835 50.896 156.974 50.896H158.262L155.278 54.072C155.134 54.2533 154.979 54.3947 154.814 54.496C154.91 54.56 154.995 54.6347 155.07 54.72C155.15 54.8 155.225 54.8933 155.294 55L158.462 59H157.19C157.067 59 156.961 58.9813 156.87 58.944C156.785 58.9013 156.71 58.8267 156.646 58.72L153.982 55.4C153.902 55.288 153.822 55.216 153.742 55.184C153.667 55.1467 153.55 55.128 153.39 55.128H152.982V59H151.55V47.216H152.982Z" fill="white"/>
<path d="M164.646 54.064C164.646 53.7333 164.598 53.432 164.502 53.16C164.411 52.8827 164.275 52.6453 164.094 52.448C163.918 52.2453 163.702 52.0907 163.446 51.984C163.19 51.872 162.899 51.816 162.574 51.816C161.891 51.816 161.35 52.016 160.95 52.416C160.555 52.8107 160.31 53.36 160.214 54.064H164.646ZM165.798 57.864C165.622 58.0773 165.411 58.264 165.166 58.424C164.92 58.5787 164.656 58.7067 164.374 58.808C164.096 58.9093 163.808 58.984 163.51 59.032C163.211 59.0853 162.915 59.112 162.622 59.112C162.062 59.112 161.544 59.0187 161.07 58.832C160.6 58.64 160.192 58.3627 159.846 58C159.504 57.632 159.238 57.1787 159.046 56.64C158.854 56.1013 158.758 55.4827 158.758 54.784C158.758 54.2187 158.843 53.6907 159.014 53.2C159.19 52.7093 159.44 52.2853 159.766 51.928C160.091 51.5653 160.488 51.2827 160.958 51.08C161.427 50.872 161.955 50.768 162.542 50.768C163.027 50.768 163.475 50.8507 163.886 51.016C164.302 51.176 164.659 51.4107 164.958 51.72C165.262 52.024 165.499 52.4027 165.67 52.856C165.84 53.304 165.926 53.816 165.926 54.392C165.926 54.616 165.902 54.7653 165.854 54.84C165.806 54.9147 165.715 54.952 165.582 54.952H160.166C160.182 55.464 160.251 55.9093 160.374 56.288C160.502 56.6667 160.678 56.984 160.902 57.24C161.126 57.4907 161.392 57.68 161.702 57.808C162.011 57.9307 162.358 57.992 162.742 57.992C163.099 57.992 163.406 57.952 163.662 57.872C163.923 57.7867 164.147 57.696 164.334 57.6C164.52 57.504 164.675 57.416 164.798 57.336C164.926 57.2507 165.035 57.208 165.126 57.208C165.243 57.208 165.334 57.2533 165.398 57.344L165.798 57.864Z" fill="white"/>
<path d="M176.161 55.352C175.505 55.3733 174.945 55.4267 174.481 55.512C174.022 55.592 173.646 55.6987 173.353 55.832C173.065 55.9653 172.854 56.1227 172.721 56.304C172.593 56.4853 172.529 56.688 172.529 56.912C172.529 57.1253 172.563 57.3093 172.633 57.464C172.702 57.6187 172.795 57.7467 172.913 57.848C173.035 57.944 173.177 58.016 173.337 58.064C173.502 58.1067 173.678 58.128 173.865 58.128C174.115 58.128 174.345 58.104 174.553 58.056C174.761 58.0027 174.955 57.928 175.137 57.832C175.323 57.736 175.499 57.6213 175.665 57.488C175.835 57.3547 176.001 57.2027 176.161 57.032V55.352ZM171.561 52.04C172.009 51.608 172.491 51.2853 173.009 51.072C173.526 50.8587 174.099 50.752 174.729 50.752C175.182 50.752 175.585 50.8267 175.937 50.976C176.289 51.1253 176.585 51.3333 176.825 51.6C177.065 51.8667 177.246 52.1893 177.369 52.568C177.491 52.9467 177.553 53.3627 177.553 53.816V59H176.921C176.782 59 176.675 58.9787 176.601 58.936C176.526 58.888 176.467 58.7973 176.425 58.664L176.265 57.896C176.051 58.0933 175.843 58.2693 175.641 58.424C175.438 58.5733 175.225 58.7013 175.001 58.808C174.777 58.9093 174.537 58.9867 174.281 59.04C174.03 59.0987 173.75 59.128 173.441 59.128C173.126 59.128 172.83 59.0853 172.553 59C172.275 58.9093 172.033 58.776 171.825 58.6C171.622 58.424 171.459 58.2027 171.337 57.936C171.219 57.664 171.161 57.344 171.161 56.976C171.161 56.656 171.249 56.3493 171.425 56.056C171.601 55.7573 171.886 55.4933 172.281 55.264C172.675 55.0347 173.19 54.848 173.825 54.704C174.459 54.5547 175.238 54.4693 176.161 54.448V53.816C176.161 53.1867 176.025 52.712 175.753 52.392C175.481 52.0667 175.083 51.904 174.561 51.904C174.209 51.904 173.913 51.9493 173.673 52.04C173.438 52.1253 173.233 52.224 173.057 52.336C172.886 52.4427 172.737 52.5413 172.609 52.632C172.486 52.7173 172.363 52.76 172.241 52.76C172.145 52.76 172.062 52.736 171.993 52.688C171.923 52.6347 171.865 52.5707 171.817 52.496L171.561 52.04Z" fill="white"/>
<path d="M189.456 52.336C189.413 52.3947 189.37 52.44 189.328 52.472C189.285 52.504 189.226 52.52 189.152 52.52C189.072 52.52 188.984 52.488 188.888 52.424C188.792 52.3547 188.672 52.28 188.528 52.2C188.389 52.12 188.216 52.048 188.008 51.984C187.805 51.9147 187.554 51.88 187.256 51.88C186.856 51.88 186.504 51.952 186.2 52.096C185.896 52.2347 185.64 52.4373 185.432 52.704C185.229 52.9707 185.074 53.2933 184.968 53.672C184.866 54.0507 184.816 54.4747 184.816 54.944C184.816 55.4347 184.872 55.872 184.984 56.256C185.096 56.6347 185.253 56.9547 185.456 57.216C185.664 57.472 185.912 57.6693 186.2 57.808C186.493 57.9413 186.821 58.008 187.184 58.008C187.53 58.008 187.816 57.968 188.04 57.888C188.264 57.8027 188.448 57.7093 188.592 57.608C188.741 57.5067 188.864 57.416 188.96 57.336C189.061 57.2507 189.16 57.208 189.256 57.208C189.373 57.208 189.464 57.2533 189.528 57.344L189.928 57.864C189.752 58.0827 189.552 58.2693 189.328 58.424C189.104 58.5787 188.861 58.7093 188.6 58.816C188.344 58.9173 188.074 58.992 187.792 59.04C187.509 59.088 187.221 59.112 186.928 59.112C186.421 59.112 185.949 59.0187 185.512 58.832C185.08 58.6453 184.704 58.376 184.384 58.024C184.064 57.6667 183.813 57.2293 183.632 56.712C183.45 56.1947 183.36 55.6053 183.36 54.944C183.36 54.3413 183.442 53.784 183.608 53.272C183.778 52.76 184.024 52.32 184.344 51.952C184.669 51.5787 185.066 51.288 185.536 51.08C186.01 50.872 186.554 50.768 187.168 50.768C187.738 50.768 188.24 50.8613 188.672 51.048C189.109 51.2293 189.496 51.488 189.832 51.824L189.456 52.336Z" fill="white"/>
<path d="M194.732 50.768C195.324 50.768 195.857 50.8667 196.332 51.064C196.806 51.2613 197.212 51.5413 197.548 51.904C197.884 52.2667 198.14 52.7067 198.316 53.224C198.497 53.736 198.588 54.3093 198.588 54.944C198.588 55.584 198.497 56.16 198.316 56.672C198.14 57.184 197.884 57.6213 197.548 57.984C197.212 58.3467 196.806 58.6267 196.332 58.824C195.857 59.016 195.324 59.112 194.732 59.112C194.134 59.112 193.596 59.016 193.116 58.824C192.641 58.6267 192.236 58.3467 191.9 57.984C191.564 57.6213 191.305 57.184 191.124 56.672C190.948 56.16 190.86 55.584 190.86 54.944C190.86 54.3093 190.948 53.736 191.124 53.224C191.305 52.7067 191.564 52.2667 191.9 51.904C192.236 51.5413 192.641 51.2613 193.116 51.064C193.596 50.8667 194.134 50.768 194.732 50.768ZM194.732 58C195.532 58 196.129 57.7333 196.524 57.2C196.918 56.6613 197.116 55.912 197.116 54.952C197.116 53.9867 196.918 53.2347 196.524 52.696C196.129 52.1573 195.532 51.888 194.732 51.888C194.326 51.888 193.972 51.9573 193.668 52.096C193.369 52.2347 193.118 52.4347 192.916 52.696C192.718 52.9573 192.569 53.28 192.468 53.664C192.372 54.0427 192.324 54.472 192.324 54.952C192.324 55.912 192.521 56.6613 192.916 57.2C193.316 57.7333 193.921 58 194.732 58Z" fill="white"/>
<path d="M201.738 52.072C201.914 51.8747 202.1 51.696 202.298 51.536C202.495 51.376 202.703 51.24 202.922 51.128C203.146 51.0107 203.38 50.9227 203.626 50.864C203.876 50.8 204.146 50.768 204.434 50.768C204.876 50.768 205.266 50.8427 205.602 50.992C205.943 51.136 206.226 51.344 206.45 51.616C206.679 51.8827 206.852 52.2053 206.97 52.584C207.087 52.9627 207.146 53.3813 207.146 53.84V59H205.714V53.84C205.714 53.2267 205.572 52.752 205.29 52.416C205.012 52.0747 204.588 51.904 204.018 51.904C203.596 51.904 203.202 52.0053 202.834 52.208C202.471 52.4107 202.135 52.6853 201.826 53.032V59H200.394V50.896H201.25C201.452 50.896 201.578 50.9947 201.626 51.192L201.738 52.072Z" fill="white"/>
<path d="M210.66 52.072C210.836 51.8747 211.022 51.696 211.22 51.536C211.417 51.376 211.625 51.24 211.844 51.128C212.068 51.0107 212.302 50.9227 212.548 50.864C212.798 50.8 213.068 50.768 213.356 50.768C213.798 50.768 214.188 50.8427 214.524 50.992C214.865 51.136 215.148 51.344 215.372 51.616C215.601 51.8827 215.774 52.2053 215.892 52.584C216.009 52.9627 216.068 53.3813 216.068 53.84V59H214.636V53.84C214.636 53.2267 214.494 52.752 214.212 52.416C213.934 52.0747 213.51 51.904 212.94 51.904C212.518 51.904 212.124 52.0053 211.756 52.208C211.393 52.4107 211.057 52.6853 210.748 53.032V59H209.316V50.896H210.172C210.374 50.896 210.5 50.9947 210.548 51.192L210.66 52.072Z" fill="white"/>
<path d="M223.661 54.064C223.661 53.7333 223.613 53.432 223.517 53.16C223.427 52.8827 223.291 52.6453 223.109 52.448C222.933 52.2453 222.717 52.0907 222.461 51.984C222.205 51.872 221.915 51.816 221.589 51.816C220.907 51.816 220.365 52.016 219.965 52.416C219.571 52.8107 219.325 53.36 219.229 54.064H223.661ZM224.813 57.864C224.637 58.0773 224.427 58.264 224.181 58.424C223.936 58.5787 223.672 58.7067 223.389 58.808C223.112 58.9093 222.824 58.984 222.525 59.032C222.227 59.0853 221.931 59.112 221.637 59.112C221.077 59.112 220.56 59.0187 220.085 58.832C219.616 58.64 219.208 58.3627 218.861 58C218.52 57.632 218.253 57.1787 218.061 56.64C217.869 56.1013 217.773 55.4827 217.773 54.784C217.773 54.2187 217.859 53.6907 218.029 53.2C218.205 52.7093 218.456 52.2853 218.781 51.928C219.107 51.5653 219.504 51.2827 219.973 51.08C220.443 50.872 220.971 50.768 221.557 50.768C222.043 50.768 222.491 50.8507 222.901 51.016C223.317 51.176 223.675 51.4107 223.973 51.72C224.277 52.024 224.515 52.4027 224.685 52.856C224.856 53.304 224.941 53.816 224.941 54.392C224.941 54.616 224.917 54.7653 224.869 54.84C224.821 54.9147 224.731 54.952 224.597 54.952H219.181C219.197 55.464 219.267 55.9093 219.389 56.288C219.517 56.6667 219.693 56.984 219.917 57.24C220.141 57.4907 220.408 57.68 220.717 57.808C221.027 57.9307 221.373 57.992 221.757 57.992C222.115 57.992 222.421 57.952 222.677 57.872C222.939 57.7867 223.163 57.696 223.349 57.6C223.536 57.504 223.691 57.416 223.813 57.336C223.941 57.2507 224.051 57.208 224.141 57.208C224.259 57.208 224.349 57.2533 224.413 57.344L224.813 57.864Z" fill="white"/>
<path d="M232.331 52.336C232.288 52.3947 232.245 52.44 232.203 52.472C232.16 52.504 232.101 52.52 232.027 52.52C231.947 52.52 231.859 52.488 231.763 52.424C231.667 52.3547 231.547 52.28 231.403 52.2C231.264 52.12 231.091 52.048 230.883 51.984C230.68 51.9147 230.429 51.88 230.131 51.88C229.731 51.88 229.379 51.952 229.075 52.096C228.771 52.2347 228.515 52.4373 228.307 52.704C228.104 52.9707 227.949 53.2933 227.843 53.672C227.741 54.0507 227.691 54.4747 227.691 54.944C227.691 55.4347 227.747 55.872 227.859 56.256C227.971 56.6347 228.128 56.9547 228.331 57.216C228.539 57.472 228.787 57.6693 229.075 57.808C229.368 57.9413 229.696 58.008 230.059 58.008C230.405 58.008 230.691 57.968 230.915 57.888C231.139 57.8027 231.323 57.7093 231.467 57.608C231.616 57.5067 231.739 57.416 231.835 57.336C231.936 57.2507 232.035 57.208 232.131 57.208C232.248 57.208 232.339 57.2533 232.403 57.344L232.803 57.864C232.627 58.0827 232.427 58.2693 232.203 58.424C231.979 58.5787 231.736 58.7093 231.475 58.816C231.219 58.9173 230.949 58.992 230.667 59.04C230.384 59.088 230.096 59.112 229.803 59.112C229.296 59.112 228.824 59.0187 228.387 58.832C227.955 58.6453 227.579 58.376 227.259 58.024C226.939 57.6667 226.688 57.2293 226.507 56.712C226.325 56.1947 226.235 55.6053 226.235 54.944C226.235 54.3413 226.317 53.784 226.483 53.272C226.653 52.76 226.899 52.32 227.219 51.952C227.544 51.5787 227.941 51.288 228.411 51.08C228.885 50.872 229.429 50.768 230.043 50.768C230.613 50.768 231.115 50.8613 231.547 51.048C231.984 51.2293 232.371 51.488 232.707 51.824L232.331 52.336Z" fill="white"/>
<path d="M241.851 59H240.427V52.088H236.251V56.952C236.251 57.2933 236.334 57.5467 236.499 57.712C236.665 57.8773 236.878 57.96 237.139 57.96C237.289 57.96 237.417 57.9413 237.523 57.904C237.635 57.8613 237.731 57.816 237.811 57.768C237.891 57.72 237.958 57.6773 238.011 57.64C238.07 57.5973 238.121 57.576 238.163 57.576C238.238 57.576 238.305 57.6213 238.363 57.712L238.779 58.392C238.534 58.6213 238.238 58.8027 237.891 58.936C237.545 59.064 237.187 59.128 236.819 59.128C236.179 59.128 235.686 58.9493 235.339 58.592C234.998 58.2347 234.827 57.72 234.827 57.048V52.088H233.851C233.766 52.088 233.694 52.064 233.635 52.016C233.577 51.9627 233.547 51.8827 233.547 51.776V51.208L234.875 51.032L235.203 48.536C235.219 48.456 235.254 48.392 235.307 48.344C235.366 48.2907 235.441 48.264 235.531 48.264H236.251V51.056H241.851V59ZM242.203 48.296C242.203 48.4347 242.174 48.5653 242.115 48.688C242.062 48.8053 241.987 48.9093 241.891 49C241.801 49.0907 241.694 49.1627 241.571 49.216C241.449 49.2693 241.318 49.296 241.179 49.296C241.041 49.296 240.91 49.2693 240.787 49.216C240.67 49.1627 240.566 49.0907 240.475 49C240.385 48.9093 240.313 48.8053 240.259 48.688C240.206 48.5653 240.179 48.4347 240.179 48.296C240.179 48.1573 240.206 48.0267 240.259 47.904C240.313 47.776 240.385 47.6667 240.475 47.576C240.566 47.48 240.67 47.4053 240.787 47.352C240.91 47.2987 241.041 47.272 241.179 47.272C241.318 47.272 241.449 47.2987 241.571 47.352C241.694 47.4053 241.801 47.48 241.891 47.576C241.987 47.6667 242.062 47.776 242.115 47.904C242.174 48.0267 242.203 48.1573 242.203 48.296Z" fill="white"/>
<path d="M247.607 50.768C248.199 50.768 248.732 50.8667 249.207 51.064C249.681 51.2613 250.087 51.5413 250.423 51.904C250.759 52.2667 251.015 52.7067 251.191 53.224C251.372 53.736 251.463 54.3093 251.463 54.944C251.463 55.584 251.372 56.16 251.191 56.672C251.015 57.184 250.759 57.6213 250.423 57.984C250.087 58.3467 249.681 58.6267 249.207 58.824C248.732 59.016 248.199 59.112 247.607 59.112C247.009 59.112 246.471 59.016 245.991 58.824C245.516 58.6267 245.111 58.3467 244.775 57.984C244.439 57.6213 244.18 57.184 243.999 56.672C243.823 56.16 243.735 55.584 243.735 54.944C243.735 54.3093 243.823 53.736 243.999 53.224C244.18 52.7067 244.439 52.2667 244.775 51.904C245.111 51.5413 245.516 51.2613 245.991 51.064C246.471 50.8667 247.009 50.768 247.607 50.768ZM247.607 58C248.407 58 249.004 57.7333 249.399 57.2C249.793 56.6613 249.991 55.912 249.991 54.952C249.991 53.9867 249.793 53.2347 249.399 52.696C249.004 52.1573 248.407 51.888 247.607 51.888C247.201 51.888 246.847 51.9573 246.543 52.096C246.244 52.2347 245.993 52.4347 245.791 52.696C245.593 52.9573 245.444 53.28 245.343 53.664C245.247 54.0427 245.199 54.472 245.199 54.952C245.199 55.912 245.396 56.6613 245.791 57.2C246.191 57.7333 246.796 58 247.607 58Z" fill="white"/>
<path d="M254.613 52.072C254.789 51.8747 254.975 51.696 255.173 51.536C255.37 51.376 255.578 51.24 255.797 51.128C256.021 51.0107 256.255 50.9227 256.501 50.864C256.751 50.8 257.021 50.768 257.309 50.768C257.751 50.768 258.141 50.8427 258.477 50.992C258.818 51.136 259.101 51.344 259.325 51.616C259.554 51.8827 259.727 52.2053 259.845 52.584C259.962 52.9627 260.021 53.3813 260.021 53.84V59H258.589V53.84C258.589 53.2267 258.447 52.752 258.165 52.416C257.887 52.0747 257.463 51.904 256.893 51.904C256.471 51.904 256.077 52.0053 255.709 52.208C255.346 52.4107 255.01 52.6853 254.701 53.032V59H253.269V50.896H254.125C254.327 50.896 254.453 50.9947 254.501 51.192L254.613 52.072Z" fill="white"/>
<path d="M261.951 58.12C261.951 57.9813 261.975 57.8507 262.023 57.728C262.076 57.6053 262.145 57.4987 262.231 57.408C262.321 57.3173 262.428 57.2453 262.551 57.192C262.673 57.1387 262.804 57.112 262.943 57.112C263.081 57.112 263.212 57.1387 263.335 57.192C263.457 57.2453 263.564 57.3173 263.655 57.408C263.745 57.4987 263.817 57.6053 263.871 57.728C263.924 57.8507 263.951 57.9813 263.951 58.12C263.951 58.264 263.924 58.3973 263.871 58.52C263.817 58.6373 263.745 58.7413 263.655 58.832C263.564 58.9227 263.457 58.992 263.335 59.04C263.212 59.0933 263.081 59.12 262.943 59.12C262.804 59.12 262.673 59.0933 262.551 59.04C262.428 58.992 262.321 58.9227 262.231 58.832C262.145 58.7413 262.076 58.6373 262.023 58.52C261.975 58.3973 261.951 58.264 261.951 58.12Z" fill="white"/>
</svg>
