<svg width="64" height="64" viewBox="0 0 64 64" fill="none" xmlns="http://www.w3.org/2000/svg">
<circle cx="32" cy="32" r="32" fill="#ECECEC"/>
<path d="M38.6665 19.7712C39.0167 19.421 39.4324 19.1433 39.89 18.9537C40.3475 18.7642 40.8379 18.6667 41.3332 18.6667C41.8284 18.6667 42.3188 18.7642 42.7764 18.9537C43.2339 19.1433 43.6496 19.421 43.9998 19.7712C44.35 20.1214 44.6278 20.5372 44.8173 20.9947C45.0069 21.4523 45.1044 21.9427 45.1044 22.4379C45.1044 22.9331 45.0069 23.4235 44.8173 23.8811C44.6278 24.3386 44.35 24.7544 43.9998 25.1046L25.9998 43.1046L18.6665 45.1046L20.6665 37.7712L38.6665 19.7712Z" stroke="#CBCBCB" stroke-width="2" stroke-linecap="round" stroke-linejoin="round"/>
</svg>
