<svg width="52" height="52" viewBox="0 0 52 52" fill="none" xmlns="http://www.w3.org/2000/svg">
<g filter="url(#filter0_d)">
<ellipse cx="25.8227" cy="24" rx="23.8227" ry="24" fill="#6FE2B2"/>
</g>
<path fill-rule="evenodd" clip-rule="evenodd" d="M25.8226 17.5666C24.6441 15.6864 22.5631 14.4375 20.1927 14.4375C16.518 14.4375 13.5391 17.4386 13.5391 21.1406C13.5391 23.52 14.7697 25.6099 16.6247 26.7995L16.6099 26.8125L25.8226 35.0625L35.0353 26.8125C35.0353 26.8125 35.0303 26.808 35.0207 26.7994C36.8756 25.6098 38.1062 23.52 38.1062 21.1406C38.1062 17.4386 35.1272 14.4375 31.4526 14.4375C29.0821 14.4375 27.0011 15.6864 25.8226 17.5666Z" fill="white"/>
<defs>
<filter id="filter0_d" x="0" y="0" width="51.6453" height="52" filterUnits="userSpaceOnUse" color-interpolation-filters="sRGB">
<feFlood flood-opacity="0" result="BackgroundImageFix"/>
<feColorMatrix in="SourceAlpha" type="matrix" values="0 0 0 0 0 0 0 0 0 0 0 0 0 0 0 0 0 0 127 0"/>
<feOffset dy="2"/>
<feGaussianBlur stdDeviation="1"/>
<feColorMatrix type="matrix" values="0 0 0 0 0 0 0 0 0 0 0 0 0 0 0 0 0 0 0.05 0"/>
<feBlend mode="normal" in2="BackgroundImageFix" result="effect1_dropShadow"/>
<feBlend mode="normal" in="SourceGraphic" in2="effect1_dropShadow" result="shape"/>
</filter>
</defs>
</svg>
