<svg width="52" height="53" viewBox="0 0 52 53" fill="none" xmlns="http://www.w3.org/2000/svg">
<g filter="url(#filter0_d)">
<ellipse cx="26" cy="24.1787" rx="24" ry="24.1787" fill="#EB5B6C"/>
</g>
<path fill-rule="evenodd" clip-rule="evenodd" d="M25.8566 20.1719L20.8791 15.1573C19.8211 14.0915 18.1007 14.0874 17.0421 15.1539C15.9857 16.2182 15.9851 17.951 17.0455 19.0194L22.0231 24.034L17.0455 29.0486C15.9851 30.117 15.9857 31.8498 17.0421 32.9141C18.1007 33.9806 19.8211 33.9765 20.8791 32.9107L25.8566 27.8961L30.8342 32.9107C31.8922 33.9765 33.6125 33.9806 34.6711 32.9141C35.7276 31.8498 35.7282 30.117 34.6677 29.0486L29.6902 24.034L34.6677 19.0194C35.7282 17.951 35.7276 16.2182 34.6711 15.1539C33.6125 14.0874 31.8922 14.0915 30.8342 15.1573L25.8566 20.1719Z" fill="white"/>
<defs>
<filter id="filter0_d" x="0" y="0" width="52" height="52.3573" filterUnits="userSpaceOnUse" color-interpolation-filters="sRGB">
<feFlood flood-opacity="0" result="BackgroundImageFix"/>
<feColorMatrix in="SourceAlpha" type="matrix" values="0 0 0 0 0 0 0 0 0 0 0 0 0 0 0 0 0 0 127 0"/>
<feOffset dy="2"/>
<feGaussianBlur stdDeviation="1"/>
<feColorMatrix type="matrix" values="0 0 0 0 0 0 0 0 0 0 0 0 0 0 0 0 0 0 0.05 0"/>
<feBlend mode="normal" in2="BackgroundImageFix" result="effect1_dropShadow"/>
<feBlend mode="normal" in="SourceGraphic" in2="effect1_dropShadow" result="shape"/>
</filter>
</defs>
</svg>
