<svg width="24" height="24" viewBox="0 0 24 24" fill="none" xmlns="http://www.w3.org/2000/svg">
<g opacity="0.5">
<path d="M18 11C18 10.041 17.32 9.239 16.419 9.046C16.779 8.445 17 7.75 17 7C17 4.794 15.206 3 13 3C11.484 3 10.178 3.857 9.5 5.104C8.822 3.857 7.516 3 6 3C3.794 3 2 4.794 2 7C2 7.902 2.312 8.726 2.817 9.396C2.56453 9.58052 2.35902 9.82186 2.21709 10.1005C2.07516 10.3792 2.00079 10.6873 2 11V19C2 20.103 2.897 21 4 21H16C17.103 21 18 20.103 18 19V16.363L22 18.363V11.363L18 13.363V11ZM13 5C14.103 5 15 5.897 15 7C15 8.103 14.103 9 13 9C11.897 9 11 8.103 11 7C11 5.897 11.897 5 13 5ZM6 5C7.103 5 8 5.897 8 7C8 8.103 7.103 9 6 9C4.897 9 4 8.103 4 7C4 5.897 4.897 5 6 5Z" fill="black"/>
</g>
</svg>
